<svg width="42" height="42" viewBox="0 0 42 42" fill="none" xmlns="http://www.w3.org/2000/svg">
<path d="M18.2109 10.5C20.0517 10.5 21.8925 10.5 23.7891 10.5C23.7891 10.9331 23.7891 11.3662 23.7891 11.8125C24.6553 11.8125 25.5216 11.8125 26.4141 11.8125C26.4141 12.1915 26.4141 12.5705 26.4141 12.9609C26.793 13.0151 27.172 13.0692 27.5625 13.125C27.5625 13.9371 27.5625 14.7492 27.5625 15.5859C27.9956 15.5859 28.4287 15.5859 28.875 15.5859C28.875 19.1592 28.875 22.7325 28.875 26.4141C28.4419 26.4141 28.0088 26.4141 27.5625 26.4141C27.5625 27.2262 27.5625 28.0383 27.5625 28.875C26.994 28.9562 26.994 28.9562 26.4141 29.0391C26.4141 29.418 26.4141 29.797 26.4141 30.1875C25.5478 30.1875 24.6816 30.1875 23.7891 30.1875C23.7891 30.6206 23.7891 31.0537 23.7891 31.5C21.9483 31.5 20.1075 31.5 18.2109 31.5C18.2109 31.0669 18.2109 30.6338 18.2109 30.1875C17.3447 30.1875 16.4784 30.1875 15.5859 30.1875C15.5859 29.8085 15.5859 29.4295 15.5859 29.0391C15.207 28.9849 14.828 28.9308 14.4375 28.875C14.4375 28.0629 14.4375 27.2508 14.4375 26.4141C14.0044 26.4141 13.5713 26.4141 13.125 26.4141C13.125 22.8408 13.125 19.2675 13.125 15.5859C13.5581 15.5859 13.9912 15.5859 14.4375 15.5859C14.4375 14.7738 14.4375 13.9617 14.4375 13.125C15.006 13.0438 15.006 13.0438 15.5859 12.9609C15.5859 12.582 15.5859 12.203 15.5859 11.8125C16.4522 11.8125 17.3184 11.8125 18.2109 11.8125C18.2109 11.3794 18.2109 10.9463 18.2109 10.5Z" fill="#F7D720"/>
<path d="M18.375 11.8125C20.1075 11.8125 21.84 11.8125 23.625 11.8125C23.625 12.2998 23.625 12.787 23.625 13.2891C24.0581 13.2891 24.4912 13.2891 24.9375 13.2891C24.9375 14.1012 24.9375 14.9133 24.9375 15.75C23.205 15.75 21.4725 15.75 19.6875 15.75C19.6875 19.6481 19.6875 23.5463 19.6875 27.5625C20.5538 27.5625 21.42 27.5625 22.3125 27.5625C22.3125 27.1294 22.3125 26.6963 22.3125 26.25C23.1788 26.25 24.045 26.25 24.9375 26.25C24.9375 26.6831 24.9375 27.1162 24.9375 27.5625C24.5044 27.5625 24.0713 27.5625 23.625 27.5625C23.625 28.4288 23.625 29.295 23.625 30.1875C21.8925 30.1875 20.16 30.1875 18.375 30.1875C18.375 29.7544 18.375 29.3213 18.375 28.875C17.0756 28.875 15.7762 28.875 14.4375 28.875C14.4375 28.0629 14.4375 27.2508 14.4375 26.4141C14.0044 26.4141 13.5713 26.4141 13.125 26.4141C13.125 22.8408 13.125 19.2675 13.125 15.5859C13.5581 15.5859 13.9912 15.5859 14.4375 15.5859C14.4375 14.7738 14.4375 13.9617 14.4375 13.125C15.7369 13.125 17.0363 13.125 18.375 13.125C18.375 12.6919 18.375 12.2588 18.375 11.8125Z" fill="#F6D722"/>
<path d="M19.6875 15.75C20.9869 15.75 22.2863 15.75 23.625 15.75C23.625 19.215 23.625 22.68 23.625 26.25C23.1919 26.25 22.7588 26.25 22.3125 26.25C22.3125 26.6831 22.3125 27.1162 22.3125 27.5625C21.4462 27.5625 20.58 27.5625 19.6875 27.5625C19.6875 23.6644 19.6875 19.7662 19.6875 15.75Z" fill="#F5D620"/>
<path d="M18.375 11.8125C20.1075 11.8125 21.84 11.8125 23.625 11.8125C23.625 12.2998 23.625 12.787 23.625 13.2891C24.0581 13.2891 24.4912 13.2891 24.9375 13.2891C24.9375 14.1012 24.9375 14.9133 24.9375 15.75C23.205 15.75 21.4725 15.75 19.6875 15.75C19.6875 19.215 19.6875 22.68 19.6875 26.25C19.2544 26.25 18.8213 26.25 18.375 26.25C18.375 22.785 18.375 19.32 18.375 15.75C17.5087 15.75 16.6425 15.75 15.75 15.75C15.75 14.8837 15.75 14.0175 15.75 13.125C16.6163 13.125 17.4825 13.125 18.375 13.125C18.375 12.6919 18.375 12.2588 18.375 11.8125Z" fill="#F8D824"/>
<path d="M26.25 13.125C26.6831 13.125 27.1162 13.125 27.5625 13.125C27.5625 13.9371 27.5625 14.7492 27.5625 15.5859C27.9956 15.5859 28.4287 15.5859 28.875 15.5859C28.875 19.1592 28.875 22.7325 28.875 26.4141C28.4419 26.4141 28.0088 26.4141 27.5625 26.4141C27.5625 27.2262 27.5625 28.0383 27.5625 28.875C27.1294 28.875 26.6963 28.875 26.25 28.875C26.25 28.0087 26.25 27.1425 26.25 26.25C26.6831 26.25 27.1162 26.25 27.5625 26.25C27.5625 22.785 27.5625 19.32 27.5625 15.75C27.1294 15.75 26.6963 15.75 26.25 15.75C26.25 14.8837 26.25 14.0175 26.25 13.125Z" fill="#010100"/>
<path d="M14.4375 13.125C14.8706 13.125 15.3037 13.125 15.75 13.125C15.75 13.9913 15.75 14.8575 15.75 15.75C15.3169 15.75 14.8838 15.75 14.4375 15.75C14.4375 19.215 14.4375 22.68 14.4375 26.25C14.8706 26.25 15.3037 26.25 15.75 26.25C15.75 27.1163 15.75 27.9825 15.75 28.875C15.3169 28.875 14.8838 28.875 14.4375 28.875C14.4375 28.0629 14.4375 27.2508 14.4375 26.4141C14.0044 26.4141 13.5713 26.4141 13.125 26.4141C13.125 22.8408 13.125 19.2675 13.125 15.5859C13.5581 15.5859 13.9912 15.5859 14.4375 15.5859C14.4375 14.7738 14.4375 13.9617 14.4375 13.125Z" fill="black"/>
<path d="M17.0625 15.75C17.4956 15.75 17.9287 15.75 18.375 15.75C18.375 19.215 18.375 22.68 18.375 26.25C18.8081 26.25 19.2412 26.25 19.6875 26.25C19.6875 26.6831 19.6875 27.1162 19.6875 27.5625C18.8212 27.5625 17.955 27.5625 17.0625 27.5625C17.0625 23.6644 17.0625 19.7662 17.0625 15.75Z" fill="#F7F701"/>
<path d="M16.3402 28.8589C16.5844 28.86 16.8286 28.8619 17.0728 28.8647C17.1972 28.8654 17.3217 28.8661 17.4499 28.8669C17.7583 28.8688 18.0666 28.8718 18.375 28.8749C18.375 29.308 18.375 29.7412 18.375 30.1874C20.1075 30.1874 21.84 30.1874 23.625 30.1874C23.625 29.7543 23.625 29.3212 23.625 28.8749C24.0591 28.8705 24.4931 28.8672 24.9272 28.8647C25.0511 28.8633 25.1749 28.8619 25.3025 28.8605C25.6184 28.8591 25.9342 28.8663 26.25 28.8749C26.4141 29.039 26.4141 29.039 26.4141 30.1874C25.5478 30.1874 24.6816 30.1874 23.7891 30.1874C23.7891 30.6205 23.7891 31.0537 23.7891 31.4999C21.9483 31.4999 20.1075 31.4999 18.2109 31.4999C18.2109 31.0668 18.2109 30.6337 18.2109 30.1874C17.3447 30.1874 16.4784 30.1874 15.5859 30.1874C15.5859 28.8794 15.5859 28.8794 16.3402 28.8589Z" fill="black"/>
<path d="M18.2109 10.5C20.0517 10.5 21.8925 10.5 23.7891 10.5C23.7891 10.9331 23.7891 11.3662 23.7891 11.8125C24.6553 11.8125 25.5216 11.8125 26.4141 11.8125C26.4141 12.1915 26.4141 12.5705 26.4141 12.9609C26.25 13.125 26.25 13.125 25.6598 13.141C25.4156 13.1399 25.1714 13.138 24.9272 13.1353C24.8028 13.1345 24.6783 13.1338 24.5501 13.133C24.2417 13.1311 23.9334 13.1281 23.625 13.125C23.625 12.6919 23.625 12.2588 23.625 11.8125C21.8925 11.8125 20.16 11.8125 18.375 11.8125C18.375 12.2456 18.375 12.6787 18.375 13.125C17.9409 13.1294 17.5069 13.1327 17.0728 13.1353C16.9489 13.1366 16.8251 13.138 16.6975 13.1394C16.3816 13.1408 16.0658 13.1336 15.75 13.125C15.6959 13.0709 15.6417 13.0167 15.5859 12.9609C15.5859 12.582 15.5859 12.203 15.5859 11.8125C16.4522 11.8125 17.3184 11.8125 18.2109 11.8125C18.2109 11.3794 18.2109 10.9463 18.2109 10.5Z" fill="black"/>
<path d="M26.25 15.75C26.6831 15.75 27.1162 15.75 27.5625 15.75C27.5625 19.215 27.5625 22.68 27.5625 26.25C27.1294 26.25 26.6963 26.25 26.25 26.25C26.25 22.785 26.25 19.32 26.25 15.75Z" fill="#D39C36"/>
<path d="M23.625 15.75C24.0581 15.75 24.4912 15.75 24.9375 15.75C24.9375 19.215 24.9375 22.68 24.9375 26.25C24.5044 26.25 24.0713 26.25 23.625 26.25C23.625 22.785 23.625 19.32 23.625 15.75Z" fill="#F7F600"/>
<path d="M22.3125 15.75C22.7456 15.75 23.1787 15.75 23.625 15.75C23.625 19.215 23.625 22.68 23.625 26.25C23.1919 26.25 22.7588 26.25 22.3125 26.25C22.3125 22.785 22.3125 19.32 22.3125 15.75Z" fill="#050500"/>
<path d="M18.375 15.75C18.8081 15.75 19.2412 15.75 19.6875 15.75C19.6875 19.215 19.6875 22.68 19.6875 26.25C19.2544 26.25 18.8213 26.25 18.375 26.25C18.375 22.785 18.375 19.32 18.375 15.75Z" fill="#FEFEF9"/>
<path d="M14.4375 15.75C14.8706 15.75 15.3037 15.75 15.75 15.75C15.75 19.215 15.75 22.68 15.75 26.25C15.3169 26.25 14.8838 26.25 14.4375 26.25C14.4375 22.785 14.4375 19.32 14.4375 15.75Z" fill="#F8F8F8"/>
<path d="M19.6875 15.75C20.1206 15.75 20.5537 15.75 21 15.75C21 18.3488 21 20.9475 21 23.625C20.5669 23.625 20.1338 23.625 19.6875 23.625C19.6875 21.0262 19.6875 18.4275 19.6875 15.75Z" fill="#F8F703"/>
<path d="M18.375 28.875C20.1075 28.875 21.84 28.875 23.625 28.875C23.625 29.3081 23.625 29.7412 23.625 30.1875C21.8925 30.1875 20.16 30.1875 18.375 30.1875C18.375 29.7544 18.375 29.3213 18.375 28.875Z" fill="#D19B36"/>
<path d="M18.375 11.8125C20.1075 11.8125 21.84 11.8125 23.625 11.8125C23.625 12.2456 23.625 12.6787 23.625 13.125C21.8925 13.125 20.16 13.125 18.375 13.125C18.375 12.6919 18.375 12.2588 18.375 11.8125Z" fill="#F6F6F6"/>
<path d="M24.9375 26.25C25.3706 26.25 25.8037 26.25 26.25 26.25C26.25 27.1163 26.25 27.9825 26.25 28.875C25.3837 28.875 24.5175 28.875 23.625 28.875C23.625 28.4419 23.625 28.0088 23.625 27.5625C24.0581 27.5625 24.4912 27.5625 24.9375 27.5625C24.9375 27.1294 24.9375 26.6963 24.9375 26.25Z" fill="#D29C36"/>
<path d="M15.75 13.125C16.6163 13.125 17.4825 13.125 18.375 13.125C18.375 13.5581 18.375 13.9912 18.375 14.4375C17.9419 14.4375 17.5088 14.4375 17.0625 14.4375C17.0625 14.8706 17.0625 15.3037 17.0625 15.75C16.6294 15.75 16.1963 15.75 15.75 15.75C15.75 14.8837 15.75 14.0175 15.75 13.125Z" fill="#F8F8F7"/>
<path d="M23.625 13.125C24.4913 13.125 25.3575 13.125 26.25 13.125C26.25 13.9913 26.25 14.8575 26.25 15.75C25.8169 15.75 25.3838 15.75 24.9375 15.75C24.9375 14.9379 24.9375 14.1258 24.9375 13.2891C24.5044 13.2891 24.0713 13.2891 23.625 13.2891C23.625 13.2349 23.625 13.1808 23.625 13.125Z" fill="#D19C34"/>
<path d="M19.6875 26.25C20.5538 26.25 21.42 26.25 22.3125 26.25C22.3125 26.6831 22.3125 27.1162 22.3125 27.5625C21.4462 27.5625 20.58 27.5625 19.6875 27.5625C19.6875 27.1294 19.6875 26.6963 19.6875 26.25Z" fill="#070700"/>
<path d="M19.6875 14.4375C20.5538 14.4375 21.42 14.4375 22.3125 14.4375C22.3125 14.8706 22.3125 15.3037 22.3125 15.75C21.4462 15.75 20.58 15.75 19.6875 15.75C19.6875 15.3169 19.6875 14.8838 19.6875 14.4375Z" fill="#FEFEF8"/>
<path d="M22.3125 26.25C22.7456 26.25 23.1787 26.25 23.625 26.25C23.625 26.6831 23.625 27.1162 23.625 27.5625C23.1919 27.5625 22.7588 27.5625 22.3125 27.5625C22.3125 27.1294 22.3125 26.6963 22.3125 26.25Z" fill="#F6F500"/>
<path d="M17.0625 14.4375C17.4956 14.4375 17.9287 14.4375 18.375 14.4375C18.375 14.8706 18.375 15.3037 18.375 15.75C17.9419 15.75 17.5088 15.75 17.0625 15.75C17.0625 15.3169 17.0625 14.8838 17.0625 14.4375Z" fill="#F8D929"/>
<path d="M22.3125 14.4375C22.7456 14.4375 23.1787 14.4375 23.625 14.4375C23.625 14.8706 23.625 15.3037 23.625 15.75C23.1919 15.75 22.7588 15.75 22.3125 15.75C22.3125 15.3169 22.3125 14.8838 22.3125 14.4375Z" fill="#F7F702"/>
<path d="M18.375 14.4375C18.8081 14.4375 19.2412 14.4375 19.6875 14.4375C19.6875 14.8706 19.6875 15.3037 19.6875 15.75C19.2544 15.75 18.8213 15.75 18.375 15.75C18.375 15.3169 18.375 14.8838 18.375 14.4375Z" fill="#F8F702"/>
</svg>
