<svg width="42" height="39" viewBox="0 0 42 39" fill="none" xmlns="http://www.w3.org/2000/svg">
<path d="M7.875 17.4029C7.875 10.3269 13.7515 3.25 21 3.25C28.2485 3.25 34.125 10.3269 34.125 17.4029C34.125 23.0482 28 27.625 21 27.625C14 27.625 7.875 23.0482 7.875 17.4029Z" fill="#689F38"/>
<path d="M27.3703 22.3568L27.6074 22.0992C28.8289 20.7805 30.4687 20.3125 31.5003 20.3125C32.8049 20.3125 34.1253 21.4289 34.1253 23.5625C34.1253 26.3404 31.9623 29.25 29.7503 29.25L25.8828 29.2524L27.3703 22.3568Z" fill="#FFA726"/>
<path d="M31.0625 26C31.7874 26 32.375 25.4543 32.375 24.7812C32.375 24.1082 31.7874 23.5625 31.0625 23.5625C30.3376 23.5625 29.75 24.1082 29.75 24.7812C29.75 25.4543 30.3376 26 31.0625 26Z" fill="#F57F17"/>
<path d="M16.1184 29.2524L12.25 29.25C10.038 29.25 7.875 26.3404 7.875 23.5625C7.875 21.4289 9.19537 20.3125 10.5 20.3125C11.5316 20.3125 13.1714 20.7805 14.3929 22.0992L14.63 22.3568L16.1184 29.2524Z" fill="#FFA726"/>
<path d="M10.9375 26C11.6624 26 12.25 25.4543 12.25 24.7812C12.25 24.1082 11.6624 23.5625 10.9375 23.5625C10.2126 23.5625 9.625 24.1082 9.625 24.7812C9.625 25.4543 10.2126 26 10.9375 26Z" fill="#F57F17"/>
<path d="M14 26.8125L12.2824 29.25L11.9674 28.4887C11.2849 26.8401 10.8972 25.0998 10.8176 23.3358L10.5 16.25L14 14.625V26.8125Z" fill="#795548"/>
<path d="M28 26.8125L29.7176 29.25L30.0326 28.4887C30.7151 26.8401 31.1028 25.0998 31.1824 23.3358L31.5 16.25L28 14.625V26.8125Z" fill="#795548"/>
<path d="M12.25 15.4375L18.4371 13H23.5629L29.75 15.4375C29.75 15.4375 29.1638 28.2937 28 31.0017C26.5536 34.3704 24.2139 36.5625 21 36.5625C17.6584 36.5625 15.2626 34.1933 13.832 30.5971C12.7802 27.9524 12.25 15.4375 12.25 15.4375Z" fill="#FFB74D"/>
<path d="M25.375 23.5625C26.3415 23.5625 27.125 22.4712 27.125 21.125C27.125 19.7788 26.3415 18.6875 25.375 18.6875C24.4085 18.6875 23.625 19.7788 23.625 21.125C23.625 22.4712 24.4085 23.5625 25.375 23.5625Z" fill="white"/>
<path d="M24.9375 23.5625C25.6624 23.5625 26.25 22.6531 26.25 21.5312C26.25 20.4094 25.6624 19.5 24.9375 19.5C24.2126 19.5 23.625 20.4094 23.625 21.5312C23.625 22.6531 24.2126 23.5625 24.9375 23.5625Z" fill="#2196F3"/>
<path d="M24.5 23.5625C24.9832 23.5625 25.375 22.835 25.375 21.9375C25.375 21.04 24.9832 20.3125 24.5 20.3125C24.0168 20.3125 23.625 21.04 23.625 21.9375C23.625 22.835 24.0168 23.5625 24.5 23.5625Z" fill="#263238"/>
<path d="M16.625 24.375C17.5915 24.375 18.375 23.2837 18.375 21.9375C18.375 20.5913 17.5915 19.5 16.625 19.5C15.6585 19.5 14.875 20.5913 14.875 21.9375C14.875 23.2837 15.6585 24.375 16.625 24.375Z" fill="white"/>
<path d="M16.625 23.5625C17.5915 23.5625 18.375 22.4712 18.375 21.125C18.375 19.7788 17.5915 18.6875 16.625 18.6875C15.6585 18.6875 14.875 19.7788 14.875 21.125C14.875 22.4712 15.6585 23.5625 16.625 23.5625Z" fill="white"/>
<path d="M17.0625 23.5625C17.7874 23.5625 18.375 22.6531 18.375 21.5312C18.375 20.4094 17.7874 19.5 17.0625 19.5C16.3376 19.5 15.75 20.4094 15.75 21.5312C15.75 22.6531 16.3376 23.5625 17.0625 23.5625Z" fill="#2196F3"/>
<path d="M17.5 23.5625C17.9832 23.5625 18.375 22.835 18.375 21.9375C18.375 21.04 17.9832 20.3125 17.5 20.3125C17.0168 20.3125 16.625 21.04 16.625 21.9375C16.625 22.835 17.0168 23.5625 17.5 23.5625Z" fill="#263238"/>
<path d="M21 5.6875C18.5841 5.6875 16.625 7.50669 16.625 9.75C16.625 10.9769 17.2113 12.077 18.137 12.8221C18.9044 13.4388 22.8935 13.5103 23.625 13C24.6872 12.259 25.375 11.0793 25.375 9.75C25.375 7.50669 23.4168 5.6875 21 5.6875Z" fill="white"/>
<path d="M19.25 6.57862L19.397 11.3748L23.1849 11.3659V9.42887L20.5371 9.34355L20.804 6.47949L19.25 6.57862Z" fill="#689F38"/>
<path d="M30.9393 17.6637C29.3127 16.679 27.7027 15.8698 26.0428 15.3238C24.3847 14.7908 22.6942 14.4861 20.9993 14.4999C19.3044 14.4828 17.613 14.7875 15.9549 15.3197C14.295 15.8657 12.6842 16.6766 11.0602 17.6637L11.0427 17.6743C10.6104 17.9368 10.0714 17.7556 9.8378 17.2697C9.66018 16.8992 9.71268 16.4564 9.93843 16.1517C11.2439 14.4007 12.9554 12.9992 14.8638 12.0429C16.7713 11.0687 18.8853 10.5828 21.0002 10.5625C23.1151 10.5787 25.229 11.0654 27.1365 12.0388C29.0458 12.9943 30.7573 14.3975 32.061 16.1517C32.376 16.5758 32.3262 17.2063 31.949 17.5606C31.6629 17.8303 31.27 17.862 30.9594 17.6759L30.9393 17.6637Z" fill="#8BC34A"/>
<path d="M14 17.875C15.3799 15.9494 17.626 15.6017 19.25 16.8773C19.1686 14.8818 17.5184 14.4642 16.2461 14.673C14.9739 14.8826 14.0271 15.7642 14 17.875Z" fill="#263238"/>
<path d="M28 17.875C26.6201 15.9494 24.374 15.6017 22.75 16.8773C22.8314 14.8818 24.4816 14.4642 25.7539 14.673C27.0261 14.8818 27.9729 15.7642 28 17.875Z" fill="#263238"/>
<path d="M29.75 28.7983C29.75 31.2886 27.3962 33.3125 24.5 33.3125C21.6038 33.3125 19.25 31.2886 19.25 28.7983C19.25 27.7371 19.67 26.767 20.3788 26C21.245 27.2261 22.8638 28.0467 24.7188 28.0467C26.4338 28.0467 28.0114 27.3463 28.9126 26.2706C29.4814 26.9921 29.75 27.8655 29.75 28.7983Z" fill="#263238"/>
<path d="M12.25 28.7983C12.25 31.2886 14.6038 33.3125 17.5 33.3125C20.3962 33.3125 22.75 31.2886 22.75 28.7983C22.75 27.7371 22.33 26.767 21.6212 26C20.755 27.2261 19.1362 28.0467 17.2812 28.0467C15.5662 28.0467 13.9396 27.3366 13.0384 26.2608C12.4696 26.9823 12.25 27.8655 12.25 28.7983Z" fill="#263238"/>
<path d="M21 30.0625C23.8995 30.0625 26.25 28.2437 26.25 26C26.25 23.7563 23.8995 21.9375 21 21.9375C18.1005 21.9375 15.75 23.7563 15.75 26C15.75 28.2437 18.1005 30.0625 21 30.0625Z" fill="#FFD49C"/>
</svg>
