<svg xmlns="http://www.w3.org/2000/svg" viewBox="0 0 333.55 438.13"><defs><style>.cls-1{fill:#1a4e9c;}.cls-2{fill:#edc9ac;}.cls-3{fill:#fff;}.cls-4{fill:#cb1731;}.cls-5{fill:#854b2b;}.cls-6{fill:#e2ac6d;}.cls-7{fill:#efe500;}.cls-8{fill:#3f97ab;}</style></defs><g id="katman_2" data-name="katman 2"><g id="katman_1-2" data-name="katman 1"><path d="M329.89,184.09a14.29,14.29,0,0,1-1.78-4.33c-1.18-5.29-3.54-10-7.8-13.46-4.46-3.64-9.82-5.32-15.3-6.63a44.55,44.55,0,0,0-9.21-1.07,52.89,52.89,0,0,0-12.62,1.22,60.76,60.76,0,0,0-9.93,3.1,8.26,8.26,0,0,1-5.17.43,23.89,23.89,0,0,0-5.92-.79,20.44,20.44,0,0,0-12.54,4.07,4.67,4.67,0,0,1-3,1c-5.72,0-11.44,0-17.16,0-2,0-1.94,0-1.53-1.85,0-.14,0-.29.07-.43a6.77,6.77,0,0,1,4.18-5.53,43.79,43.79,0,0,0,14.27-11,22.84,22.84,0,0,0,5.79-15.72,38.5,38.5,0,0,0-.55-5.95,30.27,30.27,0,0,0-4.09-10.72,35.15,35.15,0,0,0-11.82-11.38,4,4,0,0,1-2.15-4c.11-1.48.26-2.94.26-4.42a149.92,149.92,0,0,0-1.12-19.52c-.5-3.82-1.21-7.58-1.94-11.36A105.36,105.36,0,0,0,226,48.9a95.79,95.79,0,0,0-10.9-20.81,69.93,69.93,0,0,0-17-17.62,57.18,57.18,0,0,0-25-9.94,48.18,48.18,0,0,0-16.2.33,59.37,59.37,0,0,0-11.71,3.5,45.5,45.5,0,0,0-18.38,14.33c-1.53,1.95-2.87,4-4.3,6.06-.82,1.15-1.46,1.41-2.53,1a35.25,35.25,0,0,0-7.3-1.87,56.85,56.85,0,0,0-13.79-.77A22.45,22.45,0,0,0,84.61,30c-.28.29-.49.72-1,.68a2.45,2.45,0,0,1-.92-1.07,19.71,19.71,0,0,0-5.64-6,37.06,37.06,0,0,0-17.28-6.61,41.77,41.77,0,0,0-14.17.87,64.58,64.58,0,0,0-14,5A58.21,58.21,0,0,0,5.37,49.06,45.87,45.87,0,0,0,.08,67.43,42.27,42.27,0,0,0,2.5,83.85a43.69,43.69,0,0,0,13.55,19.6A55,55,0,0,0,23.67,109a3.31,3.31,0,0,1,1.85,3.4,25,25,0,0,0,0,3.57,13,13,0,0,0,4.28,9.34,16.6,16.6,0,0,0,8.89,4.23,5.27,5.27,0,0,1,4.29,3.31c1.48,3.09,2.93,6.18,4.44,9.25a401,401,0,0,0,19.77,35.07c5.52,8.9,11.11,17.76,16.69,26.62a1.23,1.23,0,0,1,.15,1.45c-1.54,2.26-2.79,4.67-5.23,6.29C70.57,217,67,228,70.19,237.28a22.53,22.53,0,0,1,1.5,9.81,43,43,0,0,0-.23,7.85,50.56,50.56,0,0,0,.77,7.22c.42,1.94.94,3.85,1.34,5.85a1,1,0,0,1-1,0,49.44,49.44,0,0,0-8-2,51.9,51.9,0,0,0-17.3,1,43.27,43.27,0,0,0-14.45,5.9,46.55,46.55,0,0,0-17.42,21,26.85,26.85,0,0,0-1.81,16.75,45.18,45.18,0,0,1,.94,12.06,29.16,29.16,0,0,0,.13,4.28,19.28,19.28,0,0,0,3,9.13,53,53,0,0,0,18.65,16.94,60.82,60.82,0,0,0,9.79,4.27c1.56.52,2,1.3,1.29,2.52-1,1.7-.67,3.1.51,4.56a74.33,74.33,0,0,0,14.8,14,40.77,40.77,0,0,0,16.48,7.18,37.92,37.92,0,0,0,15.19-.27,21.11,21.11,0,0,0,12-6.94,10.81,10.81,0,0,1,4.84-3.39c.67-.23,1.34-.49,2-.78,4.17-1.82,7.86-4.26,10.39-8.18a22.65,22.65,0,0,0,2.73-6.86c.64-2.49,1.76-4.62,4.33-5.66a3.23,3.23,0,0,0,1.05-.72,23.67,23.67,0,0,0,6.48-12,33.55,33.55,0,0,0,.9-8.35,1.3,1.3,0,0,1,.81-1.38c.59-.2.77.41,1,.78,3.42,4.45,6.92,8.85,10.58,13.12a293.88,293.88,0,0,0,20.52,21.68,6.67,6.67,0,0,1,2.26,4.59,33.68,33.68,0,0,0,.94,6.46,17.48,17.48,0,0,0,4.16,8.16,4.34,4.34,0,0,1,1.19,3.75,62.67,62.67,0,0,0-.6,8.1c.12,2.32.09,4.63.37,7a55.75,55.75,0,0,0,2.48,11.53,31.9,31.9,0,0,0,26.51,21.6,33.72,33.72,0,0,0,21.34-4.05,20.15,20.15,0,0,1,7.46-2.23c6-.72,10.82-3.44,14.06-8.67a32.4,32.4,0,0,0,4.43-13.59,88.38,88.38,0,0,0,.21-18.11,42.33,42.33,0,0,0-2.73-11.89,1.26,1.26,0,0,1,.59-1.86,6.83,6.83,0,0,0,3.36-5.68,98.52,98.52,0,0,0-.7-17.25,22.37,22.37,0,0,0-.91-4,20.82,20.82,0,0,0-10-11.78,33.54,33.54,0,0,1-6.78-4.94,14.73,14.73,0,0,0-8.77-4.41,2,2,0,0,1-1.56-1.13,9.21,9.21,0,0,0-8.54-5.23,3.82,3.82,0,0,1-3.22-1.79c-3.67-5.1-7.33-10.21-11.06-15.27a3.87,3.87,0,0,1-.21-4.84,49.47,49.47,0,0,0,6.15-14.21A50.29,50.29,0,0,0,214.25,275a68.8,68.8,0,0,0-.41-9.83c-.42-3.26-.93-6.5-1.64-9.69a88.16,88.16,0,0,0-3.66-12.27,33,33,0,0,1-1.63-8.8c-.36-4.18-.49-8.36-.57-12.55,0-1.72.72-2.48,2.34-3a28.08,28.08,0,0,1,6.87-1.26,105.82,105.82,0,0,1,18.83.55,5.53,5.53,0,0,1,4.3,2.64,9.46,9.46,0,0,0,5.82,4.34c2,.48,3,1.78,3.57,3.63A29.42,29.42,0,0,0,259,244.3c7.35,5.28,15.13,6.66,23.54,2.82a3.56,3.56,0,0,1,3.15,0,21.83,21.83,0,0,0,7.13,1.93A35.49,35.49,0,0,0,310,246.34,15,15,0,0,0,319.22,236c.72-2.76,1.93-5.36,4.53-6.86,2.8-1.62,4.19-4.23,5.26-7a22.88,22.88,0,0,0,1-10.29,7.78,7.78,0,0,1,.81-4.27,24.41,24.41,0,0,0,2.68-10.28A24,24,0,0,0,329.89,184.09Z"/><g id="sczt7j"><path class="cls-1" d="M174.27,226.35a13,13,0,0,1,3.41,2.21c5,3.86,9.62,8.1,14.31,12.28.28.26.55.54.85.77a1.75,1.75,0,0,0,2.57,0c1.06-.82,2.06-1.71,3.14-2.48,1.52-1.07,2.28-.73,2.67,1.1.92,4.24,2.23,8.38,3.42,12.55a74.8,74.8,0,0,1,2.71,13.11,46.73,46.73,0,0,1,.37,7.83c-.67,10.27-3.78,19.63-10.32,27.77-5.42,6.74-12.42,11-20.43,13.82a54.48,54.48,0,0,1-19.82,2.86,86.64,86.64,0,0,1-9-.89,3.5,3.5,0,0,1-1.67-.76,1.19,1.19,0,0,1-.44-1.52c.27-.61.53-1.22.83-1.81a16.35,16.35,0,0,0,1.77-7.15,2.36,2.36,0,0,0-1.8-2.58c-.45-.14-.9-.32-1.36-.42-1.57-.33-2.38,0-2.95,1.51-.67,1.73-1.24,3.5-1.81,5.27a40.55,40.55,0,0,1-6.25,12.29,13.83,13.83,0,0,0-2.8,8.1c0,1.47,0,2.95.06,4.43a11.61,11.61,0,0,1-4.21,9.73c-1.46,1.25-2.06,1.27-3.33-.13A48.4,48.4,0,0,1,118,335.1,121.78,121.78,0,0,1,109,313.63,115.87,115.87,0,0,0,102,296a73.89,73.89,0,0,0-9.61-14.14,71.22,71.22,0,0,0-7.82-7.52,4.74,4.74,0,0,1-.51-.49c-.83-1-.69-1.84.49-2.24a9.38,9.38,0,0,1,6.29-.42,5.76,5.76,0,0,0,2.39.37c1.06-.11,1.33-.67.68-1.53a5.2,5.2,0,0,1-1.36-3.21,4.93,4.93,0,0,1,.9-3c4.5-6.16,10.13-10.73,17.78-12.3a33.6,33.6,0,0,1,10.36-.51,49.06,49.06,0,0,1,18.14,5.73,73.79,73.79,0,0,1,7.71,4.9c.47.33.92.68,1.39,1,.87.59,1.76,1.39,2.86.74A4.64,4.64,0,0,0,153.8,260c.14-.81-.43-1.3-1-1.74A79.81,79.81,0,0,0,141,250.77a58,58,0,0,0-13.78-5c-9-1.86-17.73-1.18-26.07,2.83a31.22,31.22,0,0,0-13.61,12.65c-2.24,3.82-1.37,3.15-5.49,3.2-2.69,0-2.68,0-3.42-2.6a6.07,6.07,0,0,1-.31-1.68c0-2.72,0-5.43,0-8.15,0-1.51.31-1.77,1.76-2.14A30.47,30.47,0,0,0,87,247.55a18.17,18.17,0,0,0,9.35-11.21c1.37-4.65,2.48-9.39,3.71-14.08.37-1.38.76-2.76,1.17-4.12.6-2,1.5-2.59,3.62-2.83a146,146,0,0,1,25.26-.51c.86,0,1.72,0,2.57.12,1.89.2,2.28.82,1.72,2.68-.38,1.28-.78,2.55-1.17,3.83a34.77,34.77,0,0,0-1.18,15,17.78,17.78,0,0,0,13.68,15.24,36.9,36.9,0,0,0,9.76,1.12c8.2-.1,13.37-4.07,16.45-11.82a25.94,25.94,0,0,0,1.45-6.38,53.08,53.08,0,0,0,.45-7.12A1.2,1.2,0,0,1,174.27,226.35Z"/><path class="cls-2" d="M120.84,137.16c-.16-.44.12-.7.23-1a1.46,1.46,0,0,0-.09-1.5,15.14,15.14,0,0,0-2.75-2.24c-.57-.44-1,.35-1.36.73a18,18,0,0,1-6.71,4.48,23.35,23.35,0,0,1-5,1.09A40.75,40.75,0,0,1,89.83,138a32.92,32.92,0,0,1-10.09-4.19c-5.45-3.49-8.33-8.59-9.16-14.94a24.19,24.19,0,0,1,4.84-18.14,16.69,16.69,0,0,1,13.37-7.1c9.42-.36,16.63,4,22.86,10.45a32.69,32.69,0,0,1,5.76,8.81c.6,1.25.59,1.25,1.89.73.35-.15.71-.27,1.06-.43a1.21,1.21,0,0,0,.68-1.76,6.08,6.08,0,0,1,.51-5.73,37.66,37.66,0,0,0,4.12-9.69,19.15,19.15,0,0,0-.56-11.9c-2.61-6.76-9.81-6.55-13.77-2.7a27.28,27.28,0,0,0-5,6.78c-.51,1-1,2-1.49,2.92s-.93,1-1.84.58c-1.22-.64-1.51-1.14-1-2.09,2.9-5.68,5.6-11.48,9.7-16.45a11.53,11.53,0,0,1,3.88-3.3,5.38,5.38,0,0,1,6.93,1.51,21.67,21.67,0,0,1,3.06,5.78c.73,1.7,1.37,3.43,2,5.12.58,0,.54-.42.65-.71a24.34,24.34,0,0,0,.89-8c0-3.55.46-4,3.92-3.37a67.72,67.72,0,0,1,11,3,72.41,72.41,0,0,1,7.48,3.19,6.45,6.45,0,0,1,.9.61c0,.75-.52,1-.92,1.42-2.23,2.13-4.68,4.07-6.38,6.71a3.88,3.88,0,0,0-.89,1.87c.48.3.84.07,1.24-.1a51.21,51.21,0,0,1,16.3-3.9,4.79,4.79,0,0,1,4.87,2.82c2,3.6,3.56,7.36,5.3,11.06,2,4.24,4.33,8.27,7.88,11.46a21.46,21.46,0,0,0,10.31,5.23,23.35,23.35,0,0,0,2.79.56,2.51,2.51,0,0,1,1.92,1.76,5.29,5.29,0,0,1-.53,5.37,15.2,15.2,0,0,1-13.07,7.16,15.48,15.48,0,0,0-5.07.72,8.63,8.63,0,0,0-5.08,11.23,2.32,2.32,0,0,1-.68,2.75c-2.89,3.12-4,6.78-2.77,10.92a8.31,8.31,0,0,0,7.46,5.77,11.7,11.7,0,0,0,6.67-2.23,30.69,30.69,0,0,0,7.13-6.75c2.78-3.31,5.79-6.35,9.77-8.19,5.14-2.39,10.43-3,15.71-.55,4.48,2.1,7,5.8,8.1,10.59,1.62,7.08-.68,13.14-4.86,18.66a30.6,30.6,0,0,1-18,11.66,26,26,0,0,1-10.19.47,23.51,23.51,0,0,1-8.55-3,1.71,1.71,0,0,0-2.19.1,46.42,46.42,0,0,1-9,5.21,47.79,47.79,0,0,1-16.65,4.16,15.25,15.25,0,0,0-7.53,2.22,36.57,36.57,0,0,1-15.45,5.57,32.82,32.82,0,0,1-11.34-.64,26.3,26.3,0,0,1-16.17-10.9A46.92,46.92,0,0,0,99,181.06a39.3,39.3,0,0,0-5.2-4.45,57.31,57.31,0,0,1-13.89-15A40.23,40.23,0,0,1,75.29,151a31,31,0,0,1-1.36-9.56c0-.45-.15-.95.34-1.39.54.38.43,1,.53,1.52a21.3,21.3,0,0,0,1,4.28A6.62,6.62,0,0,0,82.24,150c.57,0,1.14-.07,1.71-.11a1.34,1.34,0,0,1,1.57,1.1c2,6.84,9.68,8.52,15,3.85.21-.18.43-.38.63-.58.59-.6,1-.49,1.47.21a11.15,11.15,0,0,0,2.49,3.1c.7.56,1.42,1.08,2.11,1.61-.24.57-.67.48-1,.48a52.07,52.07,0,0,1-7.7-.23c-.41-.07-.79-.08-1,.32a.89.89,0,0,0,.32,1.14,3.08,3.08,0,0,0,1.29.87,6.47,6.47,0,0,1,4.33,3.85c1.2,2.48,2.31,5,3.73,7.38,2.64,4.43,5.53,8.68,9.82,11.73a13,13,0,0,0,7,2.55c4.6.18,8.14-1.91,10.91-5.46a23.08,23.08,0,0,0,3.73-8.57c1.19-4.49,1.1-9.05.94-13.61a3.85,3.85,0,0,1,2-4,8.2,8.2,0,0,0,3.54-4.52c.58-1.58.71-1.65,2.39-1.64a14.43,14.43,0,0,0,5.5-.52,10.75,10.75,0,0,0,6.92-7.91,23.84,23.84,0,0,0,.4-5.25,6.88,6.88,0,0,0-.94-3.54c-.8-1.49-1.49-1.71-3.16-1.28a37.08,37.08,0,0,0-5,2,42.45,42.45,0,0,1-11.66,3.17c-2.27.25-4.53.61-6.78,1-3.7.6-7.42.27-11.13.34A1.06,1.06,0,0,1,120.84,137.16Zm47.61-33.9c0-.62,0-1.24,0-1.86A12.6,12.6,0,0,0,164,91.86c-4.05-3.59-8.65-3.54-13.34-1.42a24.14,24.14,0,0,0-10.83,10.23,30.82,30.82,0,0,0-3.93,11.07A19.79,19.79,0,0,0,137,122.91c2.28,5.37,8.7,9,14.71,7.26a17.58,17.58,0,0,0,7.14-4.33C165.41,119.77,168,112,168.45,103.26Zm45.16,52a1.68,1.68,0,0,0-.69-1.59c-2.43-2.57-5.51-3.22-8.87-2.81a13.27,13.27,0,0,0-6.44,2.87c-4.28,3.31-7.38,7.37-8,12.94a5.65,5.65,0,0,0,.82,3.86,20,20,0,0,0,1.08-3.33,8.91,8.91,0,0,1,4.06-5.45c2.66-1.43,5.31-1.09,8-.18.67.23,1.29.75,2.17.57-1.1-3.09-3.85-3.78-6.51-4.68a5.82,5.82,0,0,1,2.86-2.2C205.84,153.38,209.68,153.85,213.61,155.28Z"/><path class="cls-3" d="M260.55,175.4a2.62,2.62,0,0,0,1.53-.81,56.53,56.53,0,0,1,17.16-9.18,43.4,43.4,0,0,1,18.88-1.85,49.33,49.33,0,0,1,16.31,4.88c4.85,2.49,8,6.34,8.85,11.87a8.48,8.48,0,0,0,1.61,3.75,20.45,20.45,0,0,1,3.81,10.76,18.46,18.46,0,0,1-.85,5.62,1.58,1.58,0,0,1-.88,1.1c-2.36-2.77-4.13-6.23-7.91-7.56,1.21,2,2.36,4,3.37,6.07a25.93,25.93,0,0,1,2.23,17.09,13.93,13.93,0,0,1-4,7,1.75,1.75,0,0,1-1.36.71c-1.15-3.84-2.67-7.55-6.39-10.08a13.23,13.23,0,0,0,.92,3.68,21.25,21.25,0,0,1,.45,13.46c-1.85,6.15-5.84,10.13-12.09,11.73a22.47,22.47,0,0,1-13.47-.71c-1.24-.45-1.59-1-1.18-2.13a26.73,26.73,0,0,0,1.59-5.89c.1-.89.63-1.06,1.45-.63a6.56,6.56,0,0,1,1.79,1.41c.93,1,1.39,1,2.43.27,2-1.45,2-1.93.15-3.56a23,23,0,0,0-11.09-5.23c-1.36-.27-2.72-.48-4.09-.63-1.17-.12-1.37.09-1.57,1.28,0,.19-.06.38-.1.56-.32,1.57-.21,1.72,1.32,2,.8.13,1.6.26,2.39.42a2.94,2.94,0,0,1,2.43,4,11,11,0,0,1-6.92,7.47c-4.28,1.74-8.42.83-12.4-1-4.87-2.28-8.14-6.21-10.58-10.85A39.39,39.39,0,0,1,250,214.54a66.56,66.56,0,0,1,.55-13.09.8.8,0,0,0-.21-.75c-.59.2-.68.82-.9,1.28-2,4.34-2.64,9-2.78,13.73,0,.62,0,1.24,0,1.86-.12,1.68-.95,2.07-2.35,1.1a8.34,8.34,0,0,1-2.64-3,27.39,27.39,0,0,1-2.49-8.13,37.39,37.39,0,0,1,.14-11.52,53.72,53.72,0,0,1,1.44-6.82,53,53,0,0,1,2.43-7.44,27.32,27.32,0,0,1,9.75-12.22A14,14,0,0,1,262.5,167a4.49,4.49,0,0,1,1,.18c1,.37,1.12.87.53,1.74a39.14,39.14,0,0,0-3,4.69A2.69,2.69,0,0,0,260.55,175.4Zm16,18.48c.16.6.28,1.24.49,1.86.47,1.34.91,2.71,1.5,4a10.8,10.8,0,0,0,2.81,4.24,3.87,3.87,0,0,0,6.32-1.85,3.79,3.79,0,0,0-1-3.41c-2.17-2.74-5.21-4.06-8.44-5C277.73,193.56,277.11,193.3,276.55,193.88Zm4.42-9.95a4,4,0,0,0,.33.48,18.5,18.5,0,0,0,6.88,4.19,7.45,7.45,0,0,0,3.19.62,4.15,4.15,0,0,0,3.57-2.62,3.34,3.34,0,0,0-1.47-3.72,6.34,6.34,0,0,0-2.81-.94,20.24,20.24,0,0,0-8,1.12C282.13,183.24,281.41,183.14,281,183.93Zm1.65-9.37a2.77,2.77,0,0,0,.67.3,28.21,28.21,0,0,0,10.94-1.43,2.39,2.39,0,0,0,1.79-2.19,2.9,2.9,0,0,0-1.46-2.75,3.47,3.47,0,0,0-2.9-.18A18.79,18.79,0,0,0,282.62,174.56Z"/><path class="cls-4" d="M228.35,105.79c0,2.86.16,5.72-.12,8.57-.09.88-.21,2.07.8,2.36s1.17-.93,1.52-1.59c.59-1.13,1-2.35,1.54-3.53.7-1.64,1.38-1.89,2.81-.82a30.26,30.26,0,0,1,10,12.1,22.34,22.34,0,0,1,1.41,12.46A21.71,21.71,0,0,1,239.51,148a35.35,35.35,0,0,1-7.67,5.69c-1.8,1-2.46.68-2.74-1.38a18,18,0,0,0-1.83-5.69,19.13,19.13,0,0,0-10.63-9.85A18.29,18.29,0,0,0,206,135.65l-.14,0c-3,.48-3.43,0-3.74-3-.46-4.4-1.14-8.77-2-13.12a130.75,130.75,0,0,0-3.27-13.43,144.5,144.5,0,0,0-8-21.07,110.15,110.15,0,0,0-11.3-18.33A34.91,34.91,0,0,1,175.33,64c-.84-1.39-.83-2,.31-3.16.89-.93,1.85-1.78,2.69-2.76a19.31,19.31,0,0,0,4.47-9.28,31.37,31.37,0,0,0-2-18.87c-3.52-7.82-9.4-13.15-17.89-15a25.15,25.15,0,0,0-20,3.68,25.81,25.81,0,0,0-8,8.2,14.23,14.23,0,0,1-1.23,1.76c-1,1.27-1.7,1.41-3.25.78-3.12-1.27-3.34-1.81-1.39-4.53,4.62-6.44,10.14-11.87,17.45-15.24a42.15,42.15,0,0,1,9.67-2.91A45.21,45.21,0,0,1,169,6.19a44.7,44.7,0,0,1,19.71,6.63A63.93,63.93,0,0,1,200.14,22a75.66,75.66,0,0,1,12.25,15.74,99.92,99.92,0,0,1,7.9,17.56A157.1,157.1,0,0,1,225,72.06c.86,3.85,1.41,7.77,2,11.67.74,4.81.92,9.66,1.29,14.49C228.51,100.73,228.35,103.26,228.35,105.79Z"/><path class="cls-3" d="M44.43,110.09a23.88,23.88,0,0,0-5.06-.84,37.15,37.15,0,0,1-14-5c-7.82-4.83-12.8-11.94-16.2-20.29a39.49,39.49,0,0,1-2.84-18,38.15,38.15,0,0,1,5.43-16.83A58.73,58.73,0,0,1,35,27a41.6,41.6,0,0,1,12.65-4.24A39.76,39.76,0,0,1,58,22.32a27.63,27.63,0,0,1,16.2,7A34.45,34.45,0,0,1,79,34.47a5.14,5.14,0,0,1,1,4.92,25.31,25.31,0,0,0-.69,5.37c-.18,1.94-.33,2-2.29,2.13-1.19.08-2.37.3-3.55.34-1.89.07-2.73-.48-3.29-2.29A19,19,0,0,0,62,34.51a18.15,18.15,0,0,0-7.85-2.87c-1.15-.14-2.29-.68-3.63-.27a4.74,4.74,0,0,0,2.36,1.47,26.44,26.44,0,0,1,11.08,8.74,18.3,18.3,0,0,1,2.56,5.23c.48,1.53.22,2-1.17,2.74A23.06,23.06,0,0,0,59.22,54c-1.22,1.21-1.42,1.21-2.28-.24a39.2,39.2,0,0,0-6.55-8.61A19.57,19.57,0,0,0,41.79,40a13.75,13.75,0,0,0-6.94-.1l3.48,1.45C44.47,44,49.45,47.87,52.44,54c1.54,3.17,2,6.31.56,9.74-1.36,3.18-1,6.56,0,9.8a1.54,1.54,0,0,1-.53,2,14.69,14.69,0,0,1-6.24,2.69c-1.19.24-1.73-.51-1.6-1.83.9-9.23-3.74-18.76-11.62-23.23a18.48,18.48,0,0,0-10.27-2.35,2.09,2.09,0,0,0,1.38,1A24.92,24.92,0,0,1,36.6,61.22a23.57,23.57,0,0,1,4,15.31c-.25,3.41-3.24,6.64-6.86,7.61-4.36,1.18-8-.11-10.92-3.43a33,33,0,0,1-3.68-5.09A8.23,8.23,0,0,0,18,74c-.59.25-.48.74-.4,1.11A27.29,27.29,0,0,0,20,82.85c2.89,5.2,8,7,13.76,5.88A14.55,14.55,0,0,0,43,83.15a2.38,2.38,0,0,1,2.31-.81,16.25,16.25,0,0,0,6.73-1,11,11,0,0,0,3.06-1.8,1.82,1.82,0,0,1,2.35-.17c4.54,2.81,9.16,2.38,13.77.27a12.06,12.06,0,0,0,5.6-5.13c.23-.4.57-.78.26-1.34-.63-.1-1,.39-1.5.66A24.65,24.65,0,0,1,70,76.61c-3.76,1.1-7.3,1-10.13-2.11A9.36,9.36,0,0,1,58.1,64.23c2.22-5.68,6.55-9.18,12.23-11.16a38.23,38.23,0,0,1,5.87-1.21c2-.37,3.31.5,3.69,2.67a45.58,45.58,0,0,0,6,15.46c1.12,1.89,2.33,3.72,3.6,5.5a5.29,5.29,0,0,1,.8,5.37c-.89,2.26-1.67,4.56-3.36,6.4A3.69,3.69,0,0,1,85,88.37c-9.8,2.19-16,8.27-19.08,17.73a25.9,25.9,0,0,0-1.26,8.56c.06,3.06-.66,4-3.54,5.09C55,122,48.68,123.64,42,123.33a17.47,17.47,0,0,1-5.6-1c-2.93-1.14-5.82-4.52-5.67-8.18.06-1.65.37-2,2-2a31.63,31.63,0,0,0,7.4-.4A12,12,0,0,0,44.43,110.09Z"/><path class="cls-1" d="M154,324.87a61,61,0,0,0,10.62-.41c9.84-1.2,19.2-3.86,27.65-9.28a86.64,86.64,0,0,0,7.05-5.11c1.46-1.16,2-1.14,3.19.34,3.86,4.84,7.67,9.72,11.49,14.58.5.64,1,1.26,1.52,1.9a4.48,4.48,0,0,0,3.41,1.77,6,6,0,0,1,5.08,3.46,19.51,19.51,0,0,1,2.23,8.92c0,1,0,2.1,0,3.15a49,49,0,0,1-4.06,19.7,33.09,33.09,0,0,1-10.48,12.62,30.25,30.25,0,0,1-19.57,6.4,11.23,11.23,0,0,1-11-8.37,15.11,15.11,0,0,1-.71-4.07,9.26,9.26,0,0,0-3-6.87A202.44,202.44,0,0,1,161,346.13a193.13,193.13,0,0,1-12-15.62c-.78-1.14-1.63-2.23-2.41-3.37-.36-.54-.92-1.1-.52-1.81s1.1-.44,1.69-.45C149.78,324.86,151.83,324.87,154,324.87Z"/><path class="cls-5" d="M57.15,272.44c10.06-.17,18.19,3.44,25.36,9.55,8.56,7.28,14.55,16.39,19,26.6,2.29,5.25,3.9,10.74,6,16.05a124.32,124.32,0,0,0,10,20.33c.85,1.38,1.72,2.74,2.64,4.07a8.1,8.1,0,0,1,.86,6.36,16.55,16.55,0,0,1-9.27,12.3,7.83,7.83,0,0,1-.79.34c-1.08.38-1.37.21-1.48-.94a36,36,0,0,0-1.4-7.56,52.5,52.5,0,0,0-6.52-13.14c-4.74-7.14-9.78-14.07-15-20.88C82.4,320,78.18,314.46,73,309.74c-5.48-5-11.66-9-19-10.73C47,297.3,39.82,297,32.75,299a26.68,26.68,0,0,0-10.63,5.39,4.88,4.88,0,0,1-.67.53c-.93.62-1.38.42-1.48-.71a14.28,14.28,0,0,1,.8-6.05,42.67,42.67,0,0,1,7.76-13.57,33.48,33.48,0,0,1,12.66-9.05A39.41,39.41,0,0,1,57.15,272.44Z"/><path class="cls-5" d="M231.89,336.49a12.69,12.69,0,0,1,7.8,5.64c2.44,3.78,2.73,8.06,2.91,12.35a65.92,65.92,0,0,1,0,7.57,41.54,41.54,0,0,1-1.5,8.42,11.5,11.5,0,0,0-.27,5.23c.69,3.71,1.07,7.43,1.48,11.17a70.46,70.46,0,0,1-.86,19.77,37.36,37.36,0,0,1-3.33,10.86c-2.63,5.12-6.85,8.45-12,10.8a30.26,30.26,0,0,1-11,2.74,25.5,25.5,0,0,1-10.5-1.71,25.77,25.77,0,0,1-11.15-7.46,30.3,30.3,0,0,1-5.09-9.83c-1.92-5.56-1.9-11.31-1.76-17.08a22.61,22.61,0,0,1,.43-3.25c.19-1.13.79-1.6,2.16-1.59,2.2,0,4.37-.16,6.56-.35a36,36,0,0,0,21.31-9.4c7.45-6.66,11.3-15.26,13.37-24.85a69.29,69.29,0,0,0,1.06-16.76A3.3,3.3,0,0,1,231.89,336.49Z"/><path class="cls-4" d="M171.76,85.44c2.87.68,4,3.27,5.85,4.93a.9.9,0,0,0,.9-.69,10.74,10.74,0,0,0,1-3.42c.43-4.66-1.27-8.6-4.14-12.09a7.77,7.77,0,0,0-5-2.81,16.42,16.42,0,0,0-6,0,3.72,3.72,0,0,1-4.19-1.58,73.15,73.15,0,0,0-6.36-7.15,124.57,124.57,0,0,0-16.3-14.3A134.33,134.33,0,0,0,125.07,40a43.33,43.33,0,0,0-13.94-5.29,9.35,9.35,0,0,0-2.53-.4,2.91,2.91,0,0,0-2,.76c.12.64.6.66,1,.81a94.24,94.24,0,0,1,17,8.13,111.42,111.42,0,0,1,14,10.4,174.16,174.16,0,0,1,18,18.13c.25.28.62.55.36,1s-.75.21-1.13,0a94.36,94.36,0,0,0-11.33-4.73,67.3,67.3,0,0,0-13.27-3.31,3.42,3.42,0,0,1-3-2.27,16.57,16.57,0,0,0-3.33-5.45,6.81,6.81,0,0,0-8.68-1.47A20.47,20.47,0,0,0,107.8,65c-.61,1.18-.45,1.75.78,2.43.69.39.73.78.36,1.37-2.08,3.31-4.13,6.64-6.24,9.92-.73,1.13-1.24,1.18-2.32.25a39.87,39.87,0,0,1-5.61-6.08,47.3,47.3,0,0,1-7.61-15,41.84,41.84,0,0,1-2-9.6c-.35-6.08.81-11.81,5.31-16.31a15.33,15.33,0,0,1,10.33-4.26c.38,0,.76,0,1.14,0a38.13,38.13,0,0,1,12.71,1.51,98.89,98.89,0,0,1,37.21,19.06c4.22,3.42,8.18,7.12,12,10.94,3,3,5.89,6.1,8.77,9.2a62.47,62.47,0,0,1,9.74,13c1.45,2.74,2.49,5.67,3.7,8.51,1.5,3.51,2.75,7.11,4.17,10.64.66,1.63,1,3.36,1.69,5a2.73,2.73,0,0,1,.14,1c0,1.2-.41,1.58-1.59,1.27a30.93,30.93,0,0,1-6.12-2.35c-3.46-1.76-5.47-4.78-7.21-8.06-1.52-2.86-2.83-5.82-4.12-8.79C172.58,87.68,171.68,86.83,171.76,85.44Z"/><path class="cls-4" d="M172.05,205.93a41.21,41.21,0,0,1,1.22-11.75c.15-.61,0-1.23.25-1.84a7.75,7.75,0,0,1,3.38-4.23,6,6,0,0,1,6.18-.61,29,29,0,0,0,18.47,1.12,43.53,43.53,0,0,0,17.95-9.29,25.25,25.25,0,0,0,3.57-3.88,3.63,3.63,0,0,1,3.14-1.62c4.33.14,8.66-.17,13-.32a3.44,3.44,0,0,1,.85,0c1.09.24,1.35.73.85,1.75-.9,1.84-1.91,3.61-2.67,5.52a58.23,58.23,0,0,0-3.66,13.31c-.33,2.27-.5,4.53-.61,6.8s.09,4.76.13,7.13c0,.81,0,1.62,0,2.43a1.25,1.25,0,0,1-1.36,1.33,32.71,32.71,0,0,1-3.43,0,91.38,91.38,0,0,0-11.7-.17A47.84,47.84,0,0,0,203,214.49a32,32,0,0,0-6.91,3.72,4.7,4.7,0,0,0-.67,6.49,1.47,1.47,0,0,0,2,.26c.54-.31,1.12-.7,1.71-.19s.4,1.11.29,1.73a10.38,10.38,0,0,1-3.78,6.66c-1.47,1.16-2.1,1.26-3.46,0-3.36-3.17-6.85-6.2-10.42-9.13a78.74,78.74,0,0,0-7.36-5.38,4.32,4.32,0,0,1-2-3.45A66.65,66.65,0,0,1,172.05,205.93Z"/><path class="cls-6" d="M92.45,354.57c-.49.51-1.14.36-1.73.37-11.14.3-22.28.26-33.42,0a36.66,36.66,0,0,1-20.2-6.44,55.49,55.49,0,0,1-13.32-12A14.53,14.53,0,0,1,20.61,329c-.38-4.08,1.42-7.28,4.62-9.73a19.53,19.53,0,0,1,8.25-3.36c1.58-.31,3.18-.53,4.79-.71a30.72,30.72,0,0,1,19.46,4.14,39.52,39.52,0,0,1,10.69,9.36,240.14,240.14,0,0,0,16,18c2.33,2.32,4.79,4.5,7.23,6.7C92,353.76,92.51,354,92.45,354.57Z"/><path class="cls-3" d="M180,42.68a28.09,28.09,0,0,1-4.69,14.15,8.17,8.17,0,0,1-2,2.05,2.52,2.52,0,0,1-3.7-.28,164.1,164.1,0,0,0-12.81-11.79,70.81,70.81,0,0,0-7.67-5.43c-4-2.56-8.08-5-11.92-7.84-1.55-1.13-1.77-1.56-.87-3.3,3.56-6.88,9-11.07,16.85-12.12a21.09,21.09,0,0,1,17.47,5.17,26.35,26.35,0,0,1,8.91,16.28A12.57,12.57,0,0,1,180,42.68Z"/><path class="cls-6" d="M101.2,377.3a1.61,1.61,0,0,1-.3-1.43c.32-4.08-1.11-7.65-3.2-11a29.53,29.53,0,0,1-2.11-3.39,3.14,3.14,0,0,1,0-2.86c1.3-2.67,2-3.61-1.49-6.38-6.12-4.85-11.27-10.65-16.22-16.65-2.79-3.38-5.45-6.86-8.27-10.21A38.9,38.9,0,0,0,49.85,312.4a32.76,32.76,0,0,0-17.08-.25,42.32,42.32,0,0,0-5.29,1.7A16.54,16.54,0,0,0,20.59,319c-.34.44-.57,1-1.12,1.26-.56-.19-.48-.68-.5-1.08a14.1,14.1,0,0,1,3.66-10.35c2.91-3.29,6.77-4.82,10.83-6a34.92,34.92,0,0,1,14.15-1.09,39.51,39.51,0,0,1,17.13,6.68c6.64,4.42,11.81,10.31,16.64,16.55,4.39,5.68,8.92,11.27,13,17.21a83.31,83.31,0,0,1,9.21,16.56,34.9,34.9,0,0,1,2.11,8.27C106.14,370.49,104.56,375.18,101.2,377.3Z"/><path class="cls-4" d="M66.76,127.93c-.1.28-.21.64-.36,1a10.24,10.24,0,0,0-.72,3.62,5.08,5.08,0,0,0,1.11,3.85,6.69,6.69,0,0,1,1.5,4.5,43.69,43.69,0,0,0,7.41,24.49,69,69,0,0,0,16.17,16.39,15.75,15.75,0,0,1,4.29,5.08,1.74,1.74,0,0,1-.21,1.76,15.48,15.48,0,0,1-2.25,3.12c-1.51,1.66-2.82,3.48-4.22,5.22-1,1.3-1.48,1.33-2.5,0-2.1-2.71-4-5.54-5.9-8.42-5.67-8.75-11-17.74-16.08-26.82-5.49-9.7-10.68-19.56-15.47-29.62-.93-2-.48-2.75,1.63-3.18a74.32,74.32,0,0,0,12.11-3.81c1.94-.76,2.08-.69,3,1.26A3.82,3.82,0,0,1,66.76,127.93Z"/><path class="cls-1" d="M151.62,248.42a19.59,19.59,0,0,1-12.11-5.56,8.76,8.76,0,0,1-2.21-4,28.63,28.63,0,0,1,1.09-19,78.14,78.14,0,0,1,6.48-13.64c1.89-3,4-5.93,6.06-8.82A5.76,5.76,0,0,1,155.4,195c3.75-.24,7.48-.59,11-2.09,1.59-.67,2.32-.12,2.13,1.6-.23,2.07-.44,4.15-.71,6.21a64.55,64.55,0,0,0-.17,11.12c.08,1.8.22,3.61.4,5.4.31,3,.52,6.06.74,9.09.4,5.34-.25,10.49-3.13,15.1S158.33,248.44,151.62,248.42ZM166.13,228c0-.62,0-1.24,0-1.86-.45-6.2-4-11.35-10.48-12.57-4.12-.78-7.95-.08-11.06,3.09a24.32,24.32,0,0,0-3.62,5.1,13.83,13.83,0,0,0-1.6,7,17.65,17.65,0,0,0,2.26,8.44,9,9,0,0,0,1.62,2.16,12.48,12.48,0,0,0,8.14,3.72c5.37.38,9.73-1.51,12.61-6.19A15.8,15.8,0,0,0,166.13,228Z"/><path class="cls-6" d="M72.78,362.6c5.62,0,11.24,0,16.86,0a5.14,5.14,0,0,1,4.52,2.21c2,2.76,3.76,5.63,4.14,9.12.44,4.09-1.72,7-5.74,7.89A29.81,29.81,0,0,1,78,381.73a40.57,40.57,0,0,1-9.07-4.12,44.56,44.56,0,0,1-14-12c-.55-.73-1.51-1.51-1-2.48s1.57-.43,2.4-.43c5.48,0,11,0,16.44,0Z"/><path class="cls-6" d="M239.28,424.47a1.41,1.41,0,0,1,.32-1.24,41.23,41.23,0,0,0,4.74-11.73,50.92,50.92,0,0,0,1.42-9.59,103.42,103.42,0,0,0-.59-18.53c-.39-3-.65-6.05-1.08-9.06-.38-2.67.72-5.15,1.11-7.72a55.08,55.08,0,0,0,0-18.34,18.77,18.77,0,0,0-.47-2.66,1.08,1.08,0,0,1,.26-1.31c.52-.42,1-.1,1.43.18a9.63,9.63,0,0,1,3.52,4,32.74,32.74,0,0,1,2.91,10.08,85.55,85.55,0,0,1,.41,10.11,4.63,4.63,0,0,1-2.35,4.28c-.32.2-.65.4-1,.63a1.82,1.82,0,0,0-.71,2.12c.61,2.2,1.31,4.36,1.75,6.61a57.48,57.48,0,0,1,1.24,8.74,77.61,77.61,0,0,1-.43,14.54c-.53,3.6-.81,7.28-2.4,10.66a19.94,19.94,0,0,1-3.47,5.2A9.58,9.58,0,0,1,239.28,424.47Z"/><path class="cls-5" d="M195.94,126.4c.59.55.46,1.28.54,1.91a49.17,49.17,0,0,1,.79,8.65,3.15,3.15,0,0,1-1.33,2.71c-4.67,3.08-8.35,7.19-12,11.38a11.24,11.24,0,0,1-6.22,3.57,4.25,4.25,0,0,1-5.39-4.29,9.4,9.4,0,0,1,2.59-6.9,2.44,2.44,0,0,0,.63-2.86,8.86,8.86,0,0,1-.3-4.24c.19-1.86,2.15-3.63,4.46-4.11a15,15,0,0,1,4-.44,13.38,13.38,0,0,0,10.33-4C194.6,127.22,195,126.44,195.94,126.4Z"/><path class="cls-1" d="M80.42,244.15a6.05,6.05,0,0,1-3-.62c-.51-.24-1.07-.57-1-1.26s.73-.71,1.22-.8A15.11,15.11,0,0,0,85,237.75c3-2.65,4.5-6.08,5.49-9.82a30.67,30.67,0,0,0,1-9.91,9.16,9.16,0,0,0-3.38-6.68c-1.31-1.09-1.39-1.41-.44-2.88,3.14-4.82,6-9.81,10.1-14,.29-.31.56-.65.88-.93,1.28-1.16,2-1.14,3.32.06.42.39.82.8,1.26,1.17,1.53,1.29,1.79,2.07,1,4-.89,2.2-1.92,4.35-2.86,6.54a210.26,210.26,0,0,0-8.81,25.18c-1.26,4.44-3.12,8.61-7,11.51C84,243.18,82.31,244.23,80.42,244.15Z"/><path class="cls-4" d="M136.83,166.33c-.44,1.44-.38,3.31-.84,5.11-.32,1.24-.49,2.52-.88,3.75a12.76,12.76,0,0,1-4.92,7,9.35,9.35,0,0,1-11.87-.74c-2.19-1.88-2.59-4.06-1.3-6.66a14.11,14.11,0,0,1,7.87-7.1c3-1.16,6.09-2.16,9-3.59C136.11,163,136.85,163.54,136.83,166.33Z"/><path class="cls-7" d="M88.77,221.28c-.25,4.35-.76,8.65-3.32,12.37a13.82,13.82,0,0,1-4.9,4.71A4.14,4.14,0,0,1,75,237.08a8.93,8.93,0,0,1-1.87-4.72c-.59-6.45,1-12.18,5.91-16.7a6.64,6.64,0,0,1,5-2A4.44,4.44,0,0,1,88.22,217,13.19,13.19,0,0,1,88.77,221.28ZM78.36,234.73c4.82-.95,8.3-12.15,5.64-16.46C83.6,224.34,82.16,229.87,78.36,234.73Z"/><path class="cls-4" d="M142.43,200.16a25.48,25.48,0,0,1-2.21,4.4c-.53,1.05-1.26,2-1.78,3.09a2.94,2.94,0,0,1-3.29,1.93c-3.68-.57-7.39-.54-11.09-.75a68.65,68.65,0,0,0-8.84-.24c-2.66.19-5.33,0-8,.43a3.45,3.45,0,0,1-.85,0c-1.22-.13-1.72-.84-1.29-2,.66-1.69,1.33-3.37,2.13-5,1.06-2.15,2.86-2.77,5-1.66,5.1,2.64,10.56,2.86,16.12,2.52a46.49,46.49,0,0,0,12.22-2.59A2.8,2.8,0,0,1,142.43,200.16Z"/><path class="cls-3" d="M107.19,163.25a41.51,41.51,0,0,0,4.28-.55,50.34,50.34,0,0,0,17-4.4c2.52-1.18,4.8-.73,7.21-.25.57.11.85.52.54,1.19a3.76,3.76,0,0,1-1.76,1.61,31.28,31.28,0,0,1-5.86,2.59,61.84,61.84,0,0,1-11.89,2.92,31.84,31.84,0,0,1-5.24.43,5.51,5.51,0,0,1-4.44-2.73C107,163.9,107,163.69,107.19,163.25Z"/><path class="cls-3" d="M123,84.65c-.29.42-.65.36-1,.36-3.85,0-6.55,1.89-8.52,5.07-1,1.66-1.82,3.44-2.73,5.16-.73,1.4-.87,1.41-2.07.42-.33-.27-.67-.53-1-.83a2.44,2.44,0,0,1-.57-3.1c1.5-3.09,3.08-6.11,5.76-8.4,2.4-2,5.23-2.55,7.65-1.25A5.11,5.11,0,0,1,123,84.65Z"/><path class="cls-8" d="M124.68,90.05a5.61,5.61,0,0,1-.05.75c-.11.65-.48.91-1.12.61-.17-.09-.32-.21-.48-.31-2.1-1.23-3.4-1.09-5.22.66a14.85,14.85,0,0,0-3.42,5.55c-.17.45-.35.89-.53,1.33-.5,1.15-.8,1.2-1.69.38a2.48,2.48,0,0,1-.75-2.86c1.55-3.72,3.33-7.31,7-9.44,2.55-1.47,4.88-.75,6,1.83A3.53,3.53,0,0,1,124.68,90.05Z"/><path class="cls-3" d="M117.32,98.93a4,4,0,0,1,1.56-3.41,1.67,1.67,0,0,1,1.86-.27,1.58,1.58,0,0,1,.75,1.57,4.85,4.85,0,0,1-1.28,3.07c-.55.66-1.2,1.26-2.18.91S117.42,99.55,117.32,98.93Z"/><path class="cls-3" d="M122.32,156.57c.46-1.06.87-2.21,2.09-2.47.86-.19,1.45.51,1.82,1.28A4.42,4.42,0,0,1,122.32,156.57Z"/><path class="cls-3" d="M164.87,98.08a.89.89,0,0,1-1-.18c-3.18-2.25-6.37-2-9.65-.19a16.59,16.59,0,0,0-6.41,6.54,27.84,27.84,0,0,0-3.33,9.48,17.41,17.41,0,0,0,.44,7.58,7.87,7.87,0,0,0,4.43,5,5.35,5.35,0,0,1,.74.41c.1.07.14.24.19.33,0,.26-.19.4-.38.39-3.09-.14-6.08-.63-8.4-2.94a9.43,9.43,0,0,1-2.86-6.48,30.4,30.4,0,0,1,1-10.32c2-6.48,5.75-11.64,11.79-14.91A9.64,9.64,0,0,1,163,94.55,6.28,6.28,0,0,1,164.87,98.08Z"/><path class="cls-8" d="M165,104.63c-.83-.52-1.49-1-2.19-1.35a5.6,5.6,0,0,0-7.08.81A17.45,17.45,0,0,0,150.19,117a6.22,6.22,0,0,0,3.51,5.76,6.26,6.26,0,0,1,1.85,1.21,4.12,4.12,0,0,1-3,1.63c-3.29.42-5.15-1.49-6.12-3.66a13,13,0,0,1-1.06-6.83,23.42,23.42,0,0,1,6.52-14.26,11.61,11.61,0,0,1,6-3.44c4.41-.94,7.6,3,7.46,6.53A3.62,3.62,0,0,1,165,104.63Z"/><path class="cls-3" d="M161.61,109.94a5.53,5.53,0,0,1-2,3.81,2,2,0,0,1-3.37-1.69,5.4,5.4,0,0,1,1.5-3.75,2.24,2.24,0,0,1,2.45-.73A2.56,2.56,0,0,1,161.61,109.94Z"/><path class="cls-7" d="M164,228.9a15.15,15.15,0,0,1-.67,4.64,10.08,10.08,0,0,1-7.7,7.12A10.92,10.92,0,0,1,142,231a14.57,14.57,0,0,1,1.47-8.45c2.56-4.69,7.39-7.07,12.48-5.77,3.29.84,5.46,3.15,6.86,6.18A13.9,13.9,0,0,1,164,228.9Zm-10.5,7.4c2.54.36,5.23-1.71,6.36-4.72s.63-7.17-1.45-8.12C159.5,228.75,157.79,233,153.49,236.3Z"/></g><path class="cls-4" d="M164.19,52.35c-.93-1.51-.65-3.06-.52-4.75.28-3.55.16-7.13.11-10.7,0-1.41-.78-1.78-2.09-1.22-1.53.65-3.09,1.24-4.59,2-2.2,1-3.14.27-3.69-2.27-.31-1.47-.38-3-.56-4.48l-.59-.46a9.1,9.1,0,0,1-.79,1.44c-1.37,1.7-2.75,3.39-4.18,5a1.84,1.84,0,0,1-2.67.32c-.9-.62-1.81-1.23-2.73-1.81s-1-1.22-.14-2c3-2.65,5.94-5.35,8.94-8,1.52-1.35,3.1-2.62,4.91-4.14.34,1.95.57,3.53.9,5.1s.72,3.07,1.14,4.83L165,27.48c.93-.47,1.86-.94,2.8-1.4s1.51-.19,1.72.77c.25,1.16.47,2.33.61,3.5.54,4.52,1,9,1.56,13.57.28,2.39.7,4.76,1,7.15.25,1.88-.05,2.26-1.92,2.61a1.27,1.27,0,0,0-.28,0c-2.29,1-4.36.94-6-1.28-.07-.09-.27-.08-.4-.12Z"/></g></g></svg>