<svg width="36" height="37" viewBox="0 0 36 37" fill="none" xmlns="http://www.w3.org/2000/svg">
<path d="M29.7342 23.3127C31.0924 21.3002 31.8818 18.9169 31.8818 16.3593C31.8818 9.16452 25.66 2.39062 17.9853 2.39062C10.3105 2.39062 4.08871 9.16452 4.08871 16.3593C4.08871 18.9409 4.89309 21.3453 6.27543 23.3696C6.27543 23.3696 6.83765 19.9691 18.1383 19.9691C29.1332 19.9691 29.7342 23.3127 29.7342 23.3127Z" fill="#FFBAB0"/>
<path d="M29.7342 23.3127C31.0924 21.3002 31.8818 18.9169 31.8818 16.3593C31.8818 9.16452 25.66 2.39062 17.9853 2.39062C10.3105 2.39062 4.08871 9.16452 4.08871 16.3593C4.08871 18.9409 4.89309 21.3453 6.27543 23.3696C6.27543 23.3696 6.83765 19.9691 18.1383 19.9691C29.1332 19.9691 29.7342 23.3127 29.7342 23.3127Z" fill="#ED4C34"/>
<path d="M6.20134 23.8433C6.35053 23.8433 6.4936 23.7823 6.59909 23.6739C6.70458 23.5655 6.76384 23.4185 6.76384 23.2651C6.76384 22.1832 11.3614 20.5474 18.2909 20.5474C25.0541 20.5474 29.207 22.1303 29.207 23.2651C29.207 23.4185 29.2663 23.5655 29.3718 23.6739C29.4773 23.7823 29.6203 23.8433 29.7695 23.8433C29.9187 23.8433 30.0618 23.7823 30.1673 23.6739C30.2728 23.5655 30.332 23.4185 30.332 23.2651C30.332 20.6034 24.0903 19.3911 18.2909 19.3911C12.0035 19.3911 5.63884 20.722 5.63884 23.2651C5.63884 23.4185 5.69811 23.5655 5.8036 23.6739C5.90909 23.7823 6.05216 23.8433 6.20134 23.8433Z" fill="#783741"/>
<path d="M29.7441 23.2651C29.7441 21.4449 24.829 19.9692 18.2655 19.9692C11.702 19.9692 6.17595 21.4449 6.17595 23.2651L7.5043 28.9154C7.5043 30.5304 12.4076 31.8399 18.2312 31.8399C24.055 31.8399 28.4161 30.5304 28.4161 28.9154L29.7441 23.2651Z" fill="#F6E89A"/>
<path d="M18.2309 32.418C23.3516 32.418 28.8588 31.3453 28.9763 28.9926L30.2909 23.401C30.3015 23.3565 30.3067 23.3109 30.3066 23.2651C30.3066 20.6034 24.0649 19.3911 18.2655 19.3911C11.9781 19.3911 5.61345 20.722 5.61345 23.2651C5.61345 23.3108 5.6188 23.3565 5.6292 23.401L6.94377 28.9932C7.0782 31.5043 13.7388 32.418 18.2309 32.418ZM29.1783 23.2099L27.8688 28.7799C27.8581 28.8244 27.853 28.87 27.853 28.9157C27.853 29.7578 24.6375 31.262 18.2306 31.262C11.6539 31.262 8.06623 29.7121 8.06623 28.9157C8.06623 28.87 8.06089 28.8244 8.05048 28.7799L6.74155 23.2119C6.88836 22.1306 11.4483 20.5477 18.2649 20.5477C24.9196 20.5474 29.0472 22.08 29.1783 23.2099Z" fill="white"/>
<path d="M6.17595 24.7847C6.32514 24.7847 6.46821 24.7238 6.5737 24.6153C6.67919 24.5069 6.73845 24.3599 6.73845 24.2065C6.73845 23.1246 11.336 21.4888 18.2655 21.4888C25.0287 21.4888 29.1816 23.0717 29.1816 24.2065C29.1816 24.3599 29.2409 24.5069 29.3464 24.6153C29.4519 24.7238 29.595 24.7847 29.7441 24.7847C29.8933 24.7847 30.0364 24.7238 30.1419 24.6153C30.2474 24.5069 30.3066 24.3599 30.3066 24.2065C30.3066 21.5446 24.0649 20.3325 18.2655 20.3325C11.9781 20.3325 5.61345 21.6634 5.61345 24.2065C5.61345 24.3599 5.67271 24.5069 5.7782 24.6153C5.88369 24.7238 6.02677 24.7847 6.17595 24.7847Z" fill="#AD4535"/>
<path d="M23.6846 11.18C23.6846 12.775 23.0681 14.3046 21.9707 15.4325C20.8734 16.5603 19.3851 17.1939 17.8332 17.1939C16.2813 17.1939 14.7929 16.5603 13.6956 15.4325C12.5982 14.3046 11.9818 12.775 11.9818 11.18C11.9818 9.58496 12.5982 8.05529 13.6956 6.92746C14.7929 5.79963 16.2813 5.16602 17.8332 5.16602C19.3851 5.16602 20.8734 5.79963 21.9707 6.92746C23.0681 8.05529 23.6846 9.58496 23.6846 11.18Z" fill="white"/>
<path d="M17.8334 17.7717C21.3699 17.7717 24.2471 14.8146 24.2471 11.18C24.2471 7.545 21.3699 4.58789 17.8334 4.58789C14.2967 4.58789 11.4195 7.545 11.4195 11.18C11.4193 14.8146 14.2967 17.7717 17.8334 17.7717ZM17.8334 5.74443C20.7497 5.74443 23.1221 8.18267 23.1221 11.1802C23.1221 14.1775 20.7497 16.6158 17.8334 16.6158C14.9172 16.6158 12.5445 14.1772 12.5445 11.1802C12.5443 8.18267 14.9169 5.74443 17.8334 5.74443Z" fill="#AD4535"/>
<path d="M6.87864 8.18701C7.98592 9.37159 8.66992 10.977 8.66992 12.7493C8.66992 15.6275 6.87245 18.068 4.37045 18.967C4.18366 18.1111 4.08915 17.2366 4.08864 16.3594C4.08864 13.4205 5.12758 10.5524 6.87864 8.18701Z" fill="white"/>
<path d="M4.78842 19.9365C4.85114 19.9365 4.91358 19.9258 4.97405 19.9041C7.77108 18.899 9.65039 16.181 9.65039 13.1406C9.65039 11.2843 8.95852 9.52184 7.70245 8.1777C7.64639 8.11725 7.57814 8.07012 7.5025 8.03961C7.42686 8.00911 7.34565 7.99596 7.26455 8.00108C7.1003 8.01062 6.9487 8.09358 6.84914 8.22828C4.97573 10.7584 3.94411 13.7852 3.94411 16.7507C3.94411 17.6633 4.04367 18.5831 4.23942 19.4847C4.26735 19.6129 4.33695 19.7275 4.43675 19.8096C4.53654 19.8918 4.66058 19.9365 4.78842 19.9365ZM7.33486 9.51143C8.10876 10.5539 8.52715 11.8293 8.52539 13.1406C8.52539 15.4632 7.21701 17.5615 5.21058 18.5542C5.11664 17.9552 5.06911 17.3511 5.06911 16.7507C5.06911 14.2596 5.86927 11.7144 7.33486 9.51143Z" fill="#AD4535"/>
<path d="M31.5792 19.0654C28.929 18.2554 26.9951 15.7359 26.9951 12.7491C26.9951 10.8878 27.7489 9.20948 28.9563 8.01074C30.7878 10.4094 31.8818 13.3463 31.8818 16.3589C31.8818 17.2876 31.7764 18.1924 31.5792 19.0654Z" fill="white"/>
<path d="M31.0636 19.8041C31.1907 19.804 31.314 19.7598 31.4135 19.6785C31.513 19.5973 31.5827 19.4838 31.6115 19.3566C31.8218 18.4264 31.9283 17.4747 31.9287 16.5197C31.9287 13.4785 30.847 10.3867 28.8831 7.81461C28.7846 7.68597 28.6381 7.6059 28.4792 7.59492C28.4006 7.58873 28.3216 7.5999 28.2475 7.62767C28.1734 7.65544 28.106 7.69917 28.0497 7.75593C26.6744 9.12146 25.917 10.9518 25.917 12.9099C25.917 16.0578 27.9673 18.8831 30.903 19.7803C30.9559 19.7962 31.0099 19.8041 31.0636 19.8041ZM28.3928 9.07174C29.9515 11.3253 30.8037 13.9459 30.8037 16.52C30.8037 17.1672 30.7491 17.8167 30.6411 18.4582C28.4946 17.534 27.042 15.3363 27.042 12.9099C27.042 11.4895 27.5176 10.1491 28.3928 9.07174ZM20.1415 27.4289C20.1415 27.6589 20.2304 27.8795 20.3887 28.0421C20.5469 28.2048 20.7615 28.2961 20.9853 28.2961C21.209 28.2961 21.4237 28.2048 21.5819 28.0421C21.7401 27.8795 21.829 27.6589 21.829 27.4289V23.9602C21.829 23.7302 21.7401 23.5096 21.5819 23.347C21.4237 23.1844 21.209 23.093 20.9853 23.093C20.7615 23.093 20.5469 23.1844 20.3887 23.347C20.2304 23.5096 20.1415 23.7302 20.1415 23.9602V27.4289ZM13.3915 27.4289C13.3915 27.6589 13.4804 27.8795 13.6387 28.0421C13.7969 28.2048 14.0115 28.2961 14.2353 28.2961C14.459 28.2961 14.6737 28.2048 14.8319 28.0421C14.9901 27.8795 15.079 27.6589 15.079 27.4289V23.9602C15.079 23.7302 14.9901 23.5096 14.8319 23.347C14.6737 23.1844 14.459 23.093 14.2353 23.093C14.0115 23.093 13.7969 23.1844 13.6387 23.347C13.4804 23.5096 13.3915 23.7302 13.3915 23.9602V27.4289Z" fill="#AD4535"/>
</svg>
