<svg width="36" height="36" viewBox="0 0 36 36" fill="none" xmlns="http://www.w3.org/2000/svg">
<path d="M2.8125 30.9375V5.0625L5.0625 2.8125H30.9375L33.1875 5.0625V30.9375L30.9375 33.1875H5.0625L2.8125 30.9375Z" fill="#FFD325"/>
<path d="M2.8125 5.0625L5.0625 2.8125V5.0625H2.8125Z" fill="#FFF536"/>
<path d="M5.0625 2.8125V5.0625H30.9375V2.8125H5.0625Z" fill="#FFEF2D"/>
<path d="M30.9375 2.8125L33.1875 5.0625H30.9375V2.8125Z" fill="#FECD36"/>
<path d="M30.9375 5.0625H33.1875V30.9375H30.9375V5.0625Z" fill="#D2A32B"/>
<path d="M30.9375 30.9375H33.1875L30.9375 33.1875V30.9375Z" fill="#B88E32"/>
<path d="M30.9375 30.9375V33.1875H5.0625V30.9375H30.9375Z" fill="#B48B28"/>
<path d="M2.8125 30.9375H5.0625V33.1875L2.8125 30.9375Z" fill="#D2A531"/>
<path d="M5.0625 30.9375H2.8125V5.0625H5.0625V30.9375Z" fill="#FFDF2C"/>
<path d="M2.8125 30.9375V5.0625L5.0625 2.8125H30.9375L33.1875 5.0625V30.9375L30.9375 33.1875H5.0625L2.8125 30.9375Z" stroke="black" stroke-linecap="round" stroke-linejoin="round"/>
<path d="M8.4375 16.3125V10.125L11.25 7.3125H24.75L27.5625 10.125V16.875L24.75 19.6875H20.8125V23.625H15.1875V19.125L18 16.3125H21.9375V10.6875H14.0625V16.3125H8.4375ZM15.1875 24.75H20.8125V28.6875H15.1875V24.75Z" fill="#E8EBE5" stroke="black" stroke-linecap="round" stroke-linejoin="round"/>
<path opacity="0.1" d="M6.75 7.875C7.37132 7.875 7.875 7.37132 7.875 6.75C7.875 6.12868 7.37132 5.625 6.75 5.625C6.12868 5.625 5.625 6.12868 5.625 6.75C5.625 7.37132 6.12868 7.875 6.75 7.875Z" fill="#B48B28" stroke="black" stroke-linecap="round" stroke-linejoin="round"/>
<path d="M29.25 7.875C29.8713 7.875 30.375 7.37132 30.375 6.75C30.375 6.12868 29.8713 5.625 29.25 5.625C28.6287 5.625 28.125 6.12868 28.125 6.75C28.125 7.37132 28.6287 7.875 29.25 7.875Z" fill="#B48B28" stroke="black" stroke-linecap="round" stroke-linejoin="round"/>
<path d="M29.25 30.375C29.8713 30.375 30.375 29.8713 30.375 29.25C30.375 28.6287 29.8713 28.125 29.25 28.125C28.6287 28.125 28.125 28.6287 28.125 29.25C28.125 29.8713 28.6287 30.375 29.25 30.375Z" fill="#B48B28" stroke="black" stroke-linecap="round" stroke-linejoin="round"/>
<path d="M6.75 30.375C7.37132 30.375 7.875 29.8713 7.875 29.25C7.875 28.6287 7.37132 28.125 6.75 28.125C6.12868 28.125 5.625 28.6287 5.625 29.25C5.625 29.8713 6.12868 30.375 6.75 30.375Z" fill="#B48B28" stroke="black" stroke-linecap="round" stroke-linejoin="round"/>
</svg>
