<svg width="42" height="42" viewBox="0 0 42 42" fill="none" xmlns="http://www.w3.org/2000/svg">
<path d="M8.75 22.75C8.69137 22.6791 6.125 20.601 6.125 17.5C6.125 13.8329 11.2683 3.5 21.0814 3.5C30.7886 3.5 35.875 13.86 35.875 17.5C35.875 20.8241 33.3926 22.5881 33.25 22.75H31.5C31.5 22.75 32.9219 14 21 14C9.07812 14 10.5 22.75 10.5 22.75H8.75Z" fill="#F44336"/>
<path d="M9.99337 30.6251C9.91637 30.6251 9.83675 30.6242 9.7545 30.6225L9.625 30.6216C7.413 30.6216 5.25 27.4882 5.25 24.4966C5.25 22.1988 6.57037 20.9966 7.875 20.9966C8.9075 20.9966 10.5464 21.5006 11.7679 22.9207L12.005 23.1981L11.3522 30.4002L10.7511 30.5577C10.5437 30.6128 10.2917 30.6251 9.99337 30.6251ZM31.248 30.5586L30.6469 30.4011L29.9941 23.199L30.2312 22.9216C31.4527 21.5015 33.0925 20.9975 34.1241 20.9975C35.4288 20.9975 36.7491 22.1997 36.7491 24.4975C36.7491 27.4891 34.5861 30.6225 32.3741 30.6225L32.2455 30.6233C32.1633 30.6242 32.0836 30.6251 32.0066 30.6251C31.7082 30.6251 31.4563 30.6128 31.248 30.5586Z" fill="#FFA726"/>
<path d="M10.5 25.8125C10.5 26.537 9.912 27.125 9.1875 27.125C8.463 27.125 7.875 26.537 7.875 25.8125C7.875 25.088 8.463 24.5 9.1875 24.5C9.912 24.5 10.5 25.088 10.5 25.8125ZM31.5 25.8125C31.5 26.537 32.088 27.125 32.8125 27.125C33.537 27.125 34.125 26.537 34.125 25.8125C34.125 25.088 33.537 24.5 32.8125 24.5C32.088 24.5 31.5 25.088 31.5 25.8125Z" fill="#F57F17"/>
<path d="M21 6.125C19.8397 6.125 18.7269 6.58594 17.9064 7.40641C17.0859 8.22688 16.625 9.33968 16.625 10.5C16.625 11.6603 17.0859 12.7731 17.9064 13.5936C18.7269 14.4141 19.8397 14.875 21 14.875C22.1603 14.875 23.2731 14.4141 24.0936 13.5936C24.9141 12.7731 25.375 11.6603 25.375 10.5C25.375 9.33968 24.9141 8.22688 24.0936 7.40641C23.2731 6.58594 22.1603 6.125 21 6.125Z" fill="white"/>
<path d="M18.7472 11.3164C18.7472 11.3164 17.5327 10.7039 17.5004 10.6164C17.4689 10.528 19.5461 7.02887 19.5461 7.02887L20.9846 8.4L22.487 7L24.5004 10.6164L23.2535 11.375L22.263 8.45862L21.0485 9.82975L19.7054 8.42975L18.7472 11.3164Z" fill="#F44336"/>
<path d="M21 38.5C18.6147 38.5 17.4492 37.7965 16.3222 37.1166C16.0212 36.9355 15.7115 36.7474 15.3615 36.5654C15.1734 36.4665 14.9459 36.365 14.6939 36.2539C12.8879 35.4454 9.625 33.628 9.625 28.875C9.625 27.902 9.77287 26.7339 9.99162 25.4275C10.1439 24.5175 10.5 23.1297 10.5 22.75C10.5 22.1226 10.0686 19.4346 9.625 18.375C9.625 18.375 12.6149 14 21 14C29.3851 14 31.5 18.375 31.5 18.375H32.375C31.9314 19.4346 31.5 22.1226 31.5 22.75C31.5 23.1297 31.8553 24.5175 32.0075 25.4275C32.2263 26.7339 32.375 27.902 32.375 28.875C32.375 33.628 29.1113 35.4454 27.3035 36.2539C27.0524 36.3667 26.8249 36.4674 26.6367 36.5654C26.2876 36.7474 25.9761 36.9355 25.6751 37.1175C24.5499 37.7965 23.3844 38.5 21 38.5Z" fill="#FFB74D"/>
<path d="M25.375 21C26.3419 21 27.125 21.9791 27.125 23.1875C27.125 24.3959 26.3419 25.375 25.375 25.375C24.4081 25.375 23.625 24.3959 23.625 23.1875C23.625 21.9791 24.4081 21 25.375 21ZM18.375 23.1875C18.375 24.3959 17.5919 25.375 16.625 25.375C15.6581 25.375 14.875 24.3959 14.875 23.1875C14.875 21.9791 15.6581 21 16.625 21C17.5919 21 18.375 21.9791 18.375 23.1875Z" fill="white"/>
<path d="M24.9375 21.875C25.662 21.875 26.25 22.6581 26.25 23.625C26.25 24.5919 25.662 25.375 24.9375 25.375C24.213 25.375 23.625 24.5919 23.625 23.625C23.625 22.6581 24.213 21.875 24.9375 21.875ZM18.375 23.625C18.375 24.5919 17.787 25.375 17.0625 25.375C16.338 25.375 15.75 24.5919 15.75 23.625C15.75 22.6581 16.338 21.875 17.0625 21.875C17.787 21.875 18.375 22.6581 18.375 23.625Z" fill="#2196F3"/>
<path d="M24.4998 22.7501C24.9828 22.7501 25.3748 23.3381 25.3748 24.0626C25.3748 24.7871 24.9828 25.3751 24.4998 25.3751C24.0168 25.3751 23.6248 24.7871 23.6248 24.0626C23.6248 23.3381 24.0168 22.7501 24.4998 22.7501ZM18.3748 24.0626C18.3748 24.7871 17.9828 25.3751 17.4998 25.3751C17.0168 25.3751 16.6248 24.7871 16.6248 24.0626C16.6248 23.3381 17.0168 22.7501 17.4998 22.7501C17.9828 22.7501 18.3748 23.3381 18.3748 24.0626ZM28.8748 20.1251C28.8748 20.1251 28.3428 19.9107 27.704 19.622C27.3759 19.4925 27.0172 19.342 26.6943 19.2685C26.5377 19.2396 26.388 19.216 26.2857 19.2326H26.2655H26.255H26.2524C26.283 19.2317 26.1824 19.2352 26.3189 19.23L26.3075 19.2317L26.2183 19.2448L26.038 19.2641C25.8989 19.2728 25.9103 19.3113 25.8368 19.3157C25.7064 19.3507 25.5227 19.4198 25.3582 19.4907C25.1884 19.5677 25.016 19.657 24.8419 19.7515C24.4972 19.9431 24.1585 20.1583 23.8488 20.343C23.245 20.728 22.7498 21.0001 22.7498 21.0001C22.7498 21.0001 22.7463 20.4243 23.0945 19.6981C23.2608 19.3306 23.5137 18.9263 23.8829 18.5475C24.0649 18.3558 24.2837 18.1782 24.5295 18.0172C24.7833 17.8553 25.0484 17.7267 25.3853 17.627C25.5498 17.585 25.793 17.5333 25.8972 17.5325L26.0783 17.522L26.1684 17.5202H26.1798L26.2533 17.5176H26.2577L26.2664 17.5185L26.3014 17.522L26.3705 17.529C26.7512 17.5543 27.0548 17.6935 27.3199 17.8317C27.8309 18.1336 28.1582 18.5081 28.3787 18.8572C28.8293 19.5458 28.8748 20.1251 28.8748 20.1251ZM19.1754 20.6448C19.1142 20.4243 19.0092 20.1137 18.8298 19.7628C18.7467 19.5817 18.6303 19.4041 18.5017 19.2125C18.3765 19.0182 18.2243 18.8248 18.0458 18.6367C17.6897 18.2648 17.2233 17.8903 16.6134 17.6821C16.2949 17.5727 16.0114 17.5237 15.6045 17.5193L15.4173 17.5307C15.3158 17.5465 15.2143 17.564 15.1145 17.5867C14.9177 17.6401 14.796 17.6943 14.6482 17.7591C14.1092 18.0356 13.7688 18.4171 13.543 18.7697C13.3217 19.1293 13.2105 19.4636 13.1642 19.7156C13.1125 19.9623 13.1248 20.1251 13.1248 20.1251C13.1248 20.1251 13.284 20.0927 13.5115 20.0183C13.746 19.9501 14.0479 19.8346 14.3743 19.7103C14.6963 19.5835 15.0428 19.4408 15.3377 19.3411C15.4015 19.3227 15.496 19.2877 15.5275 19.286C15.5424 19.2833 15.5564 19.2746 15.5704 19.2632L15.7393 19.2422C15.811 19.223 16.014 19.2378 16.1654 19.2597C16.8357 19.3735 17.6442 19.8748 18.2269 20.2773C18.8132 20.6912 19.2498 21.0001 19.2498 21.0001C19.2498 21.0001 19.2288 20.8715 19.1754 20.6448ZM29.7489 29.2566C29.7489 30.3906 28.81 31.27 28.0969 31.27C27.8764 32.6393 27.0075 33.2212 26.1308 33.2212C25.254 33.2212 24.7938 32.9123 24.7938 32.9123C24.7938 32.9123 23.9048 34.0953 22.748 34.0953C21.7278 34.0953 20.9797 33.5773 20.9797 33.5773C20.9797 33.5773 20.3042 34.1251 19.3469 34.1251C18.1158 34.1251 17.3073 32.9911 17.2058 32.8922C17.1472 32.9193 16.6957 33.2247 15.9195 33.2247C14.1249 33.2247 13.9377 31.2927 13.9377 31.2927C13.9377 31.2927 12.248 31.1912 12.248 29.1971C12.248 27.5048 12.7774 27.1242 12.7774 27.1242C12.7774 27.1242 13.0802 28.3632 16.4927 28.9608C16.9048 30.6487 18.7642 31.9236 20.998 31.9236C23.2302 31.9236 25.0878 30.6522 25.5025 28.9661C27.3217 28.6555 28.5432 28.0867 29.2379 27.1452C29.2397 27.1452 29.7489 27.5556 29.7489 29.2566Z" fill="#263238"/>
<path d="M21 32.375C18.1046 32.375 15.75 30.4124 15.75 28C15.75 25.5876 18.1046 23.625 21 23.625C23.8954 23.625 26.25 25.5876 26.25 28C26.25 30.4124 23.8954 32.375 21 32.375Z" fill="#FFD49C"/>
<path d="M32.375 19.25C32.375 19.25 32.2709 27.1512 32.3295 27.9002C31.2393 25.2542 29.75 24.5 29.75 24.5V19.25H32.375ZM9.625 19.25C9.625 19.25 9.72913 27.1512 9.6705 27.9002C10.7608 25.2542 12.25 24.5 12.25 24.5V19.25H9.625Z" fill="#795548"/>
<path d="M21 11.375C11.368 11.375 8.75 16.6784 8.75 17.5C8.75 19.096 9.625 20.125 9.625 20.125C10.9375 22.1489 12.25 20.125 12.25 20.125C12.2885 20.09 15.0027 16.625 21 16.625C26.9973 16.625 29.7115 20.09 29.75 20.125C29.75 20.125 31.0625 22.1489 32.375 20.125C32.375 20.125 33.25 19.096 33.25 17.5C33.25 16.6784 30.632 11.375 21 11.375Z" fill="#FF8A80"/>
</svg>
