<svg xmlns="http://www.w3.org/2000/svg"  viewBox="0 0 48 48" width="48px" height="48px"><path fill="#f5bc00" d="M43,14c-8,0-12,4-12,4h-7h-7c0,0-4-4-12-4c0,7.229,2.447,11.185,4.026,12.988	C9.01,27.157,9,27.327,9,27.5c0,2.986,2.381,5.411,5.348,5.492C14.124,33.62,14,34.295,14,35c0,3.08,2.33,5.62,5.32,5.96	l1.452,4.356C20.908,45.725,21.29,46,21.721,46h4.558c0.43,0,0.813-0.275,0.949-0.684l1.452-4.356C31.67,40.62,34,38.08,34,35	c0-0.705-0.124-1.38-0.348-2.008C36.619,32.911,39,30.486,39,27.5c0-0.173-0.01-0.343-0.026-0.512C40.553,25.185,43,21.229,43,14z"/><polygon fill="#eb7900" points="18,37 18,33 24,34 30,33 30,37 24,35"/><polygon fill="#2100c4" points="24,32 14.826,32 10.379,26.996 12.621,25.004 16.174,29 24,29"/><polygon fill="#2100c4" points="33.174,32 24,32 24,29 31.826,29 35.379,25.004 37.621,26.996"/><circle cx="20" cy="22" r="6" fill="#c2ffff"/><circle cx="19.5" cy="24.5" r="1.5" fill="#2100c4"/><circle cx="27.896" cy="22" r="6" fill="#c2ffff"/><circle cx="28.5" cy="24.5" r="1.5" fill="#2100c4"/><path fill="#fadb00" d="M28,29.5c0-0.709-0.494-1.301-1.156-1.457C26.358,25.714,24.834,24,24,24	c-0.832,0-2.353,1.733-2.841,4.042C20.495,28.198,20,28.79,20,29.5c0,0.726,0.516,1.331,1.201,1.47C21.732,33.041,23.192,35,24,35	s2.268-1.959,2.799-4.03C27.484,30.831,28,30.226,28,29.5z"/><path fill="#6c19ff" d="M37,19l-2,2l-22,0.25L11,19C7,10,16,2,24,2S41,10,37,19z"/><circle cx="24" cy="14.5" r="6.5" fill="#ddbaff"/><rect width="5" height="2" x="22" y="11" fill="#6c19ff"/><rect width="2" height="6" x="22" y="11" fill="#6c19ff"/><path fill="#a64aff" d="M24,19H11l1.497,3.743C12.801,23.502,13.536,24,14.354,24H24h9.646c0.818,0,1.553-0.498,1.857-1.257	L37,19H24z"/><path fill="#6c19ff" d="M24,19h-4.684c1.183,1.231,2.842,2,4.684,2s3.501-0.769,4.684-2H24z"/></svg>