<svg width="40" height="40" viewBox="0 0 40 40" fill="none" xmlns="http://www.w3.org/2000/svg">
<path d="M35.8337 11.6665C29.167 11.6665 25.8337 14.9998 25.8337 14.9998H20.0003H14.167C14.167 14.9998 10.8337 11.6665 4.16699 11.6665C4.16699 17.6907 6.20616 20.9873 7.52199 22.4898C7.50866 22.6307 7.50033 22.7723 7.50033 22.9165C7.50033 25.4048 9.48449 27.4257 11.957 27.4932C11.7703 28.0165 11.667 28.579 11.667 29.1665C11.667 31.7332 13.6087 33.8498 16.1003 34.1332L17.3103 37.7632C17.4237 38.104 17.742 38.3332 18.1012 38.3332H21.8995C22.2578 38.3332 22.577 38.104 22.6903 37.7632L23.9003 34.1332C26.392 33.8498 28.3337 31.7332 28.3337 29.1665C28.3337 28.579 28.2303 28.0165 28.0437 27.4932C30.5162 27.4257 32.5003 25.4048 32.5003 22.9165C32.5003 22.7723 32.492 22.6307 32.4787 22.4898C33.7945 20.9873 35.8337 17.6907 35.8337 11.6665Z" fill="#F5BC00"/>
<path d="M15 30.8333V27.5L20 28.3333L25 27.5V30.8333L20 29.1667L15 30.8333Z" fill="#EB7900"/>
<path d="M20.0002 26.6664H12.3552L8.64941 22.4964L10.5177 20.8364L13.4786 24.1664H20.0002V26.6664Z" fill="#2100C4"/>
<path d="M27.645 26.6664H20V24.1664H26.5217L29.4825 20.8364L31.3508 22.4964L27.645 26.6664Z" fill="#2100C4"/>
<path d="M16.667 23.3335C19.4284 23.3335 21.667 21.0949 21.667 18.3335C21.667 15.5721 19.4284 13.3335 16.667 13.3335C13.9056 13.3335 11.667 15.5721 11.667 18.3335C11.667 21.0949 13.9056 23.3335 16.667 23.3335Z" fill="#C2FFFF"/>
<path d="M16.25 21.6665C16.9404 21.6665 17.5 21.1069 17.5 20.4165C17.5 19.7261 16.9404 19.1665 16.25 19.1665C15.5596 19.1665 15 19.7261 15 20.4165C15 21.1069 15.5596 21.6665 16.25 21.6665Z" fill="#2100C4"/>
<path d="M23.2471 23.3335C26.0085 23.3335 28.2471 21.0949 28.2471 18.3335C28.2471 15.5721 26.0085 13.3335 23.2471 13.3335C20.4856 13.3335 18.2471 15.5721 18.2471 18.3335C18.2471 21.0949 20.4856 23.3335 23.2471 23.3335Z" fill="#C2FFFF"/>
<path d="M23.75 21.6665C24.4404 21.6665 25 21.1069 25 20.4165C25 19.7261 24.4404 19.1665 23.75 19.1665C23.0596 19.1665 22.5 19.7261 22.5 20.4165C22.5 21.1069 23.0596 21.6665 23.75 21.6665Z" fill="#2100C4"/>
<path d="M23.3337 24.5833C23.3337 23.9925 22.922 23.4992 22.3703 23.3692C21.9653 21.4283 20.6953 20 20.0003 20C19.307 20 18.0395 21.4442 17.6328 23.3683C17.0795 23.4983 16.667 23.9917 16.667 24.5833C16.667 25.1883 17.097 25.6925 17.6678 25.8083C18.1103 27.5342 19.327 29.1667 20.0003 29.1667C20.6737 29.1667 21.8903 27.5342 22.3328 25.8083C22.9037 25.6925 23.3337 25.1883 23.3337 24.5833Z" fill="#FADB00"/>
<path d="M30.8334 15.8332L29.1667 17.4998L10.8334 17.7082L9.16672 15.8332C5.83338 8.33317 13.3334 1.6665 20 1.6665C26.6667 1.6665 34.1667 8.33317 30.8334 15.8332Z" fill="#6C19FF"/>
<path d="M19.9997 17.4998C22.9912 17.4998 25.4163 15.0747 25.4163 12.0832C25.4163 9.09163 22.9912 6.6665 19.9997 6.6665C17.0081 6.6665 14.583 9.09163 14.583 12.0832C14.583 15.0747 17.0081 17.4998 19.9997 17.4998Z" fill="#DDBAFF"/>
<path d="M22.4997 9.1665H18.333V10.8332H22.4997V9.1665Z" fill="#6C19FF"/>
<path d="M19.9997 9.1665H18.333V14.1665H19.9997V9.1665Z" fill="#6C19FF"/>
<path d="M20.0003 15.8335H9.16699L10.4145 18.9527C10.6678 19.5852 11.2803 20.0002 11.962 20.0002H20.0003H28.0387C28.7203 20.0002 29.3328 19.5852 29.5862 18.9527L30.8337 15.8335H20.0003Z" fill="#A64AFF"/>
<path d="M20 15.8335H16.0967C17.0825 16.8593 18.465 17.5002 20 17.5002C21.535 17.5002 22.9175 16.8593 23.9033 15.8335H20Z" fill="#6C19FF"/>
</svg>
